<?xml version="1.0" standalone="no"?>
<!DOCTYPE svg PUBLIC "-//W3C//DTD SVG 1.1//EN" "http://www.w3.org/Graphics/SVG/1.1/DTD/svg11.dtd" >
<!--
2013-9-30: Created.
-->
<svg>
<metadata>
Created by iconfont
</metadata>
<defs>

<font id="iconfont" horiz-adv-x="1024" >
  <font-face
    font-family="iconfont"
    font-weight="500"
    font-stretch="normal"
    units-per-em="1024"
    ascent="896"
    descent="-128"
  />
    <missing-glyph />
    
    <glyph glyph-name="jiaoduceliang" unicode="&#58955;" d="M924.116617 118.339478c-22.916942 0-42.774199-13.317307-52.259224-32.615838l-373.537462 0c9.152451 34.678824 10.166547 68.674079 2.982938 101.405551-7.346315 33.471322-23.214724 65.545832-47.164183 95.329159-23.092951 28.718065-48.998971 49.551556-67.344804 62.33572l274.65129 307.433928c5.406127-1.663896 11.144828-2.564405 17.089214-2.564405 32.088836 0 58.196447 26.107611 58.196447 58.19747s-26.107611 58.19747-58.196447 58.19747c-32.090882 0-58.198493-26.107611-58.198493-58.19747 0-7.257288 1.345648-14.202467 3.784186-20.615527L114.267998 116.535389c-4.602831 1.174756-9.42158 1.803066-14.384615 1.803066-32.089859 0-58.19747-26.107611-58.19747-58.19747s26.107611-58.19747 58.19747-58.19747c22.915919 0 42.772152 13.317307 52.258201 32.614815l719.716832 0c9.486048-19.296485 29.343305-32.613792 52.258201-32.613792 32.088836 0 58.196447 26.107611 58.196447 58.196447C982.313064 92.231867 956.206476 118.339478 924.116617 118.339478zM438.188412 269.632229c45.063335-56.040341 58.101279-117.812219 38.910195-183.909613L155.349649 85.722616l217.674625 243.656369C390.234237 317.572078 415.803589 297.469228 438.188412 269.632229zM678.533362 735.358323c15.161305 0 27.497261-12.335956 27.497261-27.498284s-12.335956-27.498284-27.497261-27.498284c-15.162328 0-27.499307 12.335956-27.499307 27.498284S663.371034 735.358323 678.533362 735.358323zM99.883383 32.641677c-15.162328 0-27.498284 12.335956-27.498284 27.498284s12.335956 27.498284 27.498284 27.498284 27.498284-12.335956 27.498284-27.498284S115.045711 32.641677 99.883383 32.641677zM924.116617 32.6427c-15.162328 0-27.499307 12.335956-27.499307 27.497261 0 15.162328 12.33698 27.499307 27.499307 27.499307 15.161305 0 27.497261-12.33698 27.497261-27.499307C951.613878 44.978656 939.278945 32.6427 924.116617 32.6427z"  horiz-adv-x="1024" />

    
    <glyph glyph-name="notice" unicode="&#58910;" d="M510.368-43.104c-21.728 0-43.712 15.104-71.52 38.72l-189.472 157.472L163.552 153.088C108.672 153.12 64 197.76 64 252.672l0 263.104c0 54.88 44.672 99.552 99.552 99.552l85.824 0 189.376 157.376c27.904 23.968 49.504 38.4 71.424 38.4 23.808 0 51.616-16.224 51.616-61.856l0-730.08C561.792-26.816 534.08-43.104 510.368-43.104L510.368-43.104zM163.552 548.96c-18.272 0-33.184-14.912-33.184-33.184l0-263.104c0-18.304 14.912-33.184 33.184-33.184l99.552 0c8.8 0 17.248-3.488 23.456-9.728l199.168-167.2c3.52-3.488 6.72-6.432 9.664-8.896L495.392 734.72c-2.88-2.432-6.176-5.376-9.728-8.928l-199.104-167.104c-6.208-6.24-14.656-9.728-23.456-9.728L163.552 548.96 163.552 548.96zM677.504 157.76c-6.688 0-13.472 2.016-19.328 6.24-14.88 10.688-18.272 31.424-7.616 46.336l13.152 17.984c34.336 46.56 64 86.816 64 155.904 0 71.584-26.272 106.336-59.584 150.304-5.888 7.744-11.744 15.552-17.568 23.616-10.688 14.88-7.296 35.616 7.616 46.336 14.912 10.752 35.616 7.296 46.336-7.616 5.44-7.616 11.04-15.008 16.544-22.304 35.904-47.456 72.992-96.512 72.992-190.368 0-90.88-40.832-146.336-76.896-195.296l-12.672-17.344C698.016 162.528 687.84 157.76 677.504 157.76L677.504 157.76zM790.4 45.088c-7.776 0-15.584 2.72-21.856 8.224-13.76 12.064-15.168 33.056-3.104 46.816 66.592 75.968 128.192 162.88 128.192 284.064 0 121.184-61.6 208.128-128.192 284.032-12.064 13.792-10.688 34.752 3.104 46.848 13.696 12.096 34.688 10.72 46.816-3.04 71.52-81.6 144.64-184.32 144.64-327.84 0-143.52-73.152-246.272-144.64-327.808C808.736 48.896 799.584 45.088 790.4 45.088L790.4 45.088zM790.4 45.088"  horiz-adv-x="1024" />

    
    <glyph glyph-name="circle" unicode="&#58961;" d="M527.864828 849.463104c-246.966765 0-447.169459-200.203718-447.169459-447.168436 0-246.963695 200.203718-447.167412 447.169459-447.167412 246.962671 0 447.166389 200.204741 447.166389 447.167412C975.03224 649.259386 774.827499 849.463104 527.864828 849.463104zM527.863804-16.61005c-231.355205 0-418.905742 187.550537-418.905742 418.905742 0 231.354182 187.549513 418.904719 418.905742 418.904719 231.355205 0 418.903695-187.549513 418.903695-418.904719C946.768523 170.94048599999996 759.21901-16.61005 527.863804-16.61005z"  horiz-adv-x="1024" />

    
    <glyph glyph-name="nofollow" unicode="&#59351;" d="M510.785336-62.152292999999986l-11.837606 8.801457C224.531799 150.372032 84.70724 335.902562 71.496357 513.901559l-0.084934 52.452629C84.108606 733.416088 187.644681 818.808944 278.57567 828.290899c123.440403 12.567223 180.400696-33.259498 232.295624-95.149057C562.771337 795.031401 619.558691 840.813097 742.999095 828.290899c91.015923-9.481955 194.638979-94.92086 207.1622-260.214487l0.088004-52.452629C937.035346 335.94963399999995 797.210787 150.372032 522.710946-53.35288300000002L510.785336-62.152292999999986 510.785336-62.152292999999986 510.785336-62.152292999999986zM318.548056 786.685315c-11.236925 0-23.246447-0.638543-36.027541-1.906419-74.28896-7.713682-159.127184-79.948867-169.848363-220.196051l0.084934-48.959062c11.923564-160.028717 142.228305-332.128353 398.028249-524.33084 255.969812 192.202487 386.275577 364.347149 398.11523 526.011108l0 49.048089c-10.555403 138.475841-95.476515 210.710003-169.851433 218.424708-106.023732 10.708899-150.633742-21.415752-212.395388-99.186l-15.868409-19.962657-15.784498 19.962657C440.702164 754.105293 400.470881 786.685315 318.548056 786.685315L318.548056 786.685315 318.548056 786.685315z"  horiz-adv-x="1024" />

    
    <glyph glyph-name="follow" unicode="&#59352;" d="M511.763616-62.468493999999964l-11.837606 8.80248C225.505987 150.0589 85.679381 335.59147700000005 72.468498 513.5935440000001l-0.084934 52.453652C85.080747 733.1101189999999 188.618868 818.505022 279.550881 827.988c123.441427 12.567223 180.403766-33.260521 232.298693-95.15008 51.900044 61.889559 108.688421 107.671255 232.130871 95.15008 91.016947-9.481955 194.641025-94.922906 207.16527-260.217556l0.088004-52.453652C938.019767 335.638549 798.193161 150.0589 523.689227-53.669084L511.763616-62.468493999999964 511.763616-62.468493999999964 511.763616-62.468493999999964z"  horiz-adv-x="1024" />

    
    <glyph glyph-name="jia2" unicode="&#58917;" d="M939.52 337.92h-855.04c-25.6 0-46.08 20.48-46.08 46.08s20.48 46.08 46.08 46.08h855.04c25.6 0 46.08-20.48 46.08-46.08s-20.48-46.08-46.08-46.08zM512-89.6c-25.6 0-46.08 20.48-46.08 46.08v855.04c0 25.6 20.48 46.08 46.08 46.08s46.08-20.48 46.08-46.08v-855.04c0-25.6-20.48-46.08-46.08-46.08z"  horiz-adv-x="1024" />

    
    <glyph glyph-name="down" unicode="&#58906;" d="M153 601.4l351.5-351.5c1.9-1.9 4.5-3.1 7.5-3.1s5.6 1.2 7.6 3.2L871 601.4c13.9 13.9 36.7 13.9 50.6 0 13.9-13.9 13.9-36.7 0-50.6L537.3 166.6c-13.9-13.9-36.7-13.9-50.6 0-0.1 0.1-0.1 0.1-0.1 0.2L102.4 550.9c-13.9 13.9-13.9 36.7 0 50.6 13.9 13.8 36.7 13.8 50.6-0.1zM501.8 254.8c0 0.2-0.1 0.3-0.1 0.5 0-0.2 0-0.3 0.1-0.5zM502.4 253.1c0 0.1-0.1 0.1-0.1 0.2 0-0.1 0-0.1 0.1-0.2zM501.4 257.4v0z"  horiz-adv-x="1024" />

    
    <glyph glyph-name="left" unicode="&#58907;" d="M729.4 25L377.9 376.5c-1.9 1.9-3.1 4.5-3.1 7.5s1.2 5.6 3.2 7.6L729.4 743c13.9 13.9 13.9 36.7 0 50.6-13.9 13.9-36.7 13.9-50.6 0L294.6 409.3c-13.9-13.9-13.9-36.7 0-50.6 0.1-0.1 0.1-0.1 0.2-0.1l384.1-384.1c13.9-13.9 36.7-13.9 50.6 0 13.8 13.8 13.8 36.6-0.1 50.5zM382.8 373.8c0.2 0 0.3-0.1 0.5-0.1-0.2 0-0.3 0-0.5 0.1zM381.1 374.4c0.1 0 0.1-0.1 0.2-0.1-0.1 0-0.1 0-0.2 0.1zM385.4 373.4h-0.1 0.1z"  horiz-adv-x="1024" />

    
    <glyph glyph-name="up" unicode="&#58908;" d="M871 166.6L519.5 518.1c-1.9 1.9-4.5 3.1-7.5 3.1s-5.6-1.2-7.6-3.2L153 166.6c-13.9-13.9-36.7-13.9-50.6 0-13.9 13.9-13.9 36.7 0 50.6l384.3 384.3c13.9 13.9 36.7 13.9 50.6 0 0.1-0.1 0.1-0.1 0.1-0.2l384.1-384.1c13.9-13.9 13.9-36.7 0-50.6-13.8-13.9-36.6-13.9-50.5 0zM522.2 513.2c0-0.2 0.1-0.3 0.1-0.5 0 0.2 0 0.3-0.1 0.5zM521.6 514.9c0-0.1 0.1-0.1 0.1-0.2 0 0.1 0 0.1-0.1 0.2zM522.6 510.6v0.1-0.1z"  horiz-adv-x="1024" />

    
    <glyph glyph-name="juxing" unicode="&#58905;" d="M0 784v-800h1024V784H0z m974-750H50V734h924v-700z"  horiz-adv-x="1024" />

    
    <glyph glyph-name="fangda" unicode="&#58898;" d="M800 733H226.2c-52.8 0-95.6-42.8-95.6-95.6v-573.8c0-52.8 42.8-95.6 95.6-95.6H800c52.8 0 95.6 42.8 95.6 95.6V637.4c0 52.8-42.8 95.6-95.6 95.6zM465.3 63.6H250.8c-6.7 0-12.7 2.8-17 7.2-4.6 3.9-7.5 9.6-7.5 16.7V302.7c0 13.2 10.7 23.9 23.9 23.9s23.9-10.7 23.9-23.9l-0.8-157.2 162.3 162.3 33.8-33.8-162.6-162.6h158.5c13.2 0 23.9-10.7 23.9-23.9s-10.7-23.9-23.9-23.9zM800 398.3c0-13.2-10.7-23.9-23.9-23.9s-23.9 10.7-23.9 23.9l0.8 157.2-162.4-162.3-33.8 33.8 162.5 162.5H560.8c-13.2 0-23.9 10.7-23.9 23.9s10.7 23.9 23.9 23.9h214.5c6.7 0 12.7-2.8 17-7.2 4.6-3.9 7.6-9.6 7.6-16.7v-215.1z"  horiz-adv-x="1024" />

    
    <glyph glyph-name="suoxiao" unicode="&#58903;" d="M810.2 765.8H211.1c-55.1 0-99.8-44.7-99.8-99.8v-599.1c0-55.1 44.7-99.8 99.8-99.8h599.1c55.1 0 99.8 44.7 99.8 99.8v599c0 55.2-44.7 99.9-99.8 99.9z m-324.5-674c0-13.8-11.2-25-25-25s-25 11.2-25 25l0.8 164.1-169.4-169.4-35.3 35.3 169.7 169.7H236c-13.8 0-25 11.2-25 25s11.2 25 25 25h223.9c7 0 13.3-2.9 17.8-7.5 4.8-4.1 7.9-10.1 7.9-17.5v-224.7z m299.5 299.6H561.3c-7 0-13.3 2.9-17.8 7.5-4.8 4.1-7.9 10.1-7.9 17.5V641c0 13.8 11.2 25 25 25s25-11.2 25-25l-0.8-164.1 169.4 169.4 35.3-35.3-169.8-169.7h165.5c13.8 0 25-11.2 25-25s-11.2-24.9-25-24.9z"  horiz-adv-x="1024" />

    
    <glyph glyph-name="jian" unicode="&#58888;" d="M678.143 361.751H344.448c-12.786 0-23.163 10.379-23.163 23.163 0 12.733 10.377 23.06 23.163 23.06h333.697c12.734 0 23.06-10.327 23.06-23.06-0.001-12.784-10.326-23.163-23.062-23.163zM511.295-63.392c-247.214 0-448.305 201.09-448.305 448.306 0 247.164 201.091 448.28 448.305 448.28 247.165 0 448.256-201.117 448.256-448.28 0-247.216-201.09-448.306-448.256-448.306z m0 850.36c-221.747 0-402.08-180.361-402.08-402.055 0-221.696 180.333-402.08 402.08-402.08 221.696 0 402.03 180.383 402.03 402.08 0 221.694-180.334 402.055-402.03 402.055z"  horiz-adv-x="1024" />

    
    <glyph glyph-name="quyuguanli" unicode="&#58884;" d="M299.839 465.665c0-1.621 1.615-3.235 1.615-3.235l181.124-260.364 4.849-4.843c3.25-4.857 6.471-8.095 9.705-11.335 16.171-9.693 38.803-3.228 51.744 14.564l164.963 265.214 3.219 4.849s0 1.621 1.621 1.621c22.649 37.19 35.574 80.855 35.574 127.753 0 137.457-111.581 249.047-249.038 249.047s-249.047-111.586-249.047-249.047c3.235-48.517 17.792-95.421 43.669-134.22zM508.443 779.399c0.155 0.001 0.336 0.001 0.516 0.001 97.965 0 177.38-79.414 177.38-177.38 0-0.178 0-0.357-0.001-0.534 0-33.933-9.7-64.659-25.877-92.154l-3.235-6.471-140.686-224.784-152.018 218.322-6.471 12.937c-16.176 25.877-25.877 58.225-25.877 92.182-1.615 97.034 77.636 177.888 176.266 177.888zM508.443 779.399zM513.303 488.308c0.124-0.001 0.28-0.001 0.424-0.001 56.033 0 101.459 45.426 101.459 101.459 0 0.146 0 0.295-0.001 0.44 0 56.585-45.289 101.864-101.883 101.864s-101.876-45.28-101.876-101.892c-0.001-0.124-0.001-0.28-0.001-0.425 0-56.030 45.423-101.451 101.451-101.451 0.151 0 0.299 0 0.449 0.001zM513.303 624.143c19.414 0 33.959-14.556 33.959-33.959s-14.556-33.953-33.959-33.953c-17.785 0-33.953 14.551-33.953 33.953-0.007 19.406 16.171 33.959 33.953 33.959zM958.029 467.281h-173.039c-19.414 0-33.959-14.556-33.959-33.959 0-19.414 14.556-33.959 33.959-33.959h105.119c17.785 0 33.953-16.176 33.953-33.945v-342.852c0-19.408-14.556-33.959-33.953-33.959h-753.611c-19.406 0-33.953 14.564-33.953 33.959v341.222c0 19.396 14.556 33.953 33.953 33.953h105.111c19.414 0 33.959 14.556 33.959 33.959 0 19.414-14.556 33.959-33.959 33.959h-173.024c-19.408 0-33.953-14.556-33.953-33.959v-478.679c0-19.406 14.556-33.945 33.953-33.945h889.452c19.408 0 33.953 14.551 33.953 33.945v480.301c1.615 17.792-14.556 33.959-33.959 33.959zM958.029 467.281z"  horiz-adv-x="1026" />

    
    <glyph glyph-name="juliceliang" unicode="&#58966;" d="M816.74752 484.23936c-37.07392 0-69.43232-20.16256-86.73792-50.11968H293.9904c-17.31072 29.95712-49.67424 50.11968-86.74304 50.11968-55.31136 0-100.1472-44.88704-100.1472-100.23936 0-55.36256 44.83584-100.23936 100.15232-100.23936 46.66368 0 85.86752 31.93856 96.98816 75.18208h415.52384c11.1104-43.2384 50.32448-75.18208 96.98304-75.18208 55.31136 0 100.15232 44.88192 100.15232 100.23936-0.01024 55.35744-44.84096 100.23936-100.15232 100.23936z"  horiz-adv-x="1024" />

    
    <glyph glyph-name="jia1" unicode="&#58991;" d="M272.49804687 372.046875h212.87109376v-212.87109375c0-10.28320313 8.34960938-18.72070313 18.72070312-18.72070313 10.28320313 0 18.72070313 8.34960938 18.72070312 18.72070313V372.046875h212.87109376c10.28320313 0 18.72070313 8.34960938 18.72070312 18.72070313 0 10.28320313-8.34960938 18.72070313-18.72070313 18.72070312H522.72265625V622.27148438c0 10.28320313-8.34960938 18.72070313-18.72070313 18.72070312-10.28320313 0-18.72070313-8.34960938-18.72070311-18.72070313V409.48828125H272.49804687c-10.28320313 0-18.72070313-8.34960938-18.72070312-18.72070313s8.34960938-18.72070313 18.72070313-18.72070312zM512-66c248.11523438 0 450 201.88476563 450 450S760.11523438 834 512 834 62 632.11523438 62 384s201.88476563-450 450-450z m0 862.55859375c227.4609375 0 412.55859375-185.09765625 412.55859375-412.55859375 0-227.4609375-185.09765625-412.55859375-412.55859375-412.55859375S99.44140625 156.5390625 99.44140625 384C99.44140625 611.4609375 284.5390625 796.55859375 512 796.55859375z"  horiz-adv-x="1024" />

    
    <glyph glyph-name="daochu" unicode="&#58883;" d="M517.497622 895.989368a45.029765 45.029765 0 0 0 33.084369-13.446388l232.728836-232.753853A45.029765 45.029765 0 0 0 796.782232 616.704758q0-20.013229-13.258765-33.271993t-33.259484-13.271273a45.029765 45.029765 0 0 0-33.109386 13.446388l-153.101202 153.451433v-539.268962a46.568282 46.568282 0 0 0-93.136564 0V737.059313L317.865663 583.595372a46.58079 46.58079 0 0 0-33.109386-13.446388 46.605807 46.605807 0 0 0-46.568282 46.568282 46.530757 46.530757 0 0 0 13.43388 33.084369L484.363219 882.54298A45.029765 45.029765 0 0 0 517.447588 895.989368z m459.941526-651.680768a46.605807 46.605807 0 0 0 46.555774-46.58079V11.654813q0-58.188463-40.351673-98.552644-41.077152-41.077152-98.177397-41.077152H139.635351q-57.075227 0-98.890368 40.739429Q0.005554-45.445431 0.005554 11.654813V197.777843a44.867158 44.867158 0 0 0 13.64652 32.93427A44.892174 44.892174 0 0 0 46.573836 244.3086a44.879666 44.879666 0 0 0 32.921762-13.646521 44.879666 44.879666 0 0 0 13.634012-32.884236V11.654813a46.58079 46.58079 0 0 1 46.568282-46.555774h745.817994a43.19105 43.19105 0 0 1 32.183773 13.634013A45.530096 45.530096 0 0 1 930.970932 11.654813V197.777843A46.605807 46.605807 0 0 0 977.526706 244.3086z m0 0"  horiz-adv-x="1024" />

    
    <glyph glyph-name="ditu" unicode="&#58881;" d="M807.3489066666666 429.1453633422222l122.57659221333331-27.428030008888882a24.272592213333333 24.272592213333333 0 0 0 18.981167786666667-23.69004999111111l48.54518556444444-432.24632888888885a24.272592213333333 24.272592213333333 0 0 0-32.01555000888889-23.01041777777778L732.2252322133334-15.164444444444484l-220.7835022222222-72.81777777777778-215.07944220444435 72.81777777777778-237.94422556444442-62.332017777777764A24.272592213333333 24.272592213333333 0 0 0 26.548147768888953-54.437498879999794l48.54518556444444 432.41623665777763a24.272592213333333 24.272592213333333 0 0 0 19.02971221333333 23.69004999111111l128.30492444444445 28.326115555555553 32.62236444444444-66.82244664888889-105.92559331555552-23.61723335111111-36.89434112000001-326.2236444444444c105.05178112 28.88438556444444 166.41289443555556 43.10812444444444 184.13188778666665 42.71976334222222 17.71899221333333-0.36408888888888885 89.56586666666666-24.102684444444446 215.6377122133333-71.21578666666666 131.02345443555555 47.47719111111111 204.44804778666668 71.21578666666666 220.22523221333333 71.21578666666666 15.77718556444444 0 76.94411889777777-14.223738879999996 183.45225557333333-42.71976334222222l-39.56432668444443 326.2236444444444-101.75070776888889 23.61723335111111 33.01072554666666 65.97290666666667z m-437.4892088888889-129.13019335111113c-7.96140999111111 10.437214435555555-29.36983665777778 37.42833777777778-32.28254776888888 41.26340778666666a447.41669887999996 447.41669887999996 0 0 0-25.923128888888883 37.258430008888894c-38.59342222222222 61.60384-46.72474112 75.43921777777777-58.73967445333333 103.40124444444444-13.27710776888889 30.947555555555553-20.04916110222222 60.48730112-20.04916110222222 91.94457998222222C232.86518556444452 724.6641777777778 358.06321777777777 846.5125922133333 512 846.5125922133333s279.13481443555554-121.84841443555557 279.13481443555554-272.6540322133334c0-56.55514112-19.02971221333333-96.72628110222222-80.77918776888889-195.34582556444445a654.146369991111 654.146369991111 0 0 0-38.73905777777778-55.65705443555555l-17.476266666666668-22.86478222222222a2050.42725888 2050.42725888 0 0 0-115.22199665777778-137.67414556444442L512 132.80128000000002l-26.894032213333336 29.515472213333332a2048.46117888 2048.46117888 0 0 0-115.24627000888887 137.67414556444442z m226.39047111111108 44.12757333333333c2.936983324444444 3.883614435555556 14.660645546666666 19.17534776888889 17.40344888888889 22.816237795555555a910.6834011022222 910.6834011022222 0 0 1 17.71899221333333 23.98132110222222c5.509878897777778 7.8885922133333315 10.922666666666666 16.09272888888889 17.25781333333333 26.2144 53.788065564444445 85.92497777777777 69.68661333333333 119.46970111999995 69.68661333333333 156.70385777777778C718.3170366577779 684.0075855644444 626.1540033422222 773.6948144355556 512 773.6948144355556c-114.15400334222223 0-206.3170366577778-89.68723000888889-206.3170366577778-199.8119822222222 0-20.971519999999998 4.5632477866666665-40.899318897777775 14.150921102222222-63.23010332444443 9.878945564444445-22.986145564444445 17.40344888888889-35.80207445333334 53.545338879999996-93.49802666666666a374.7202844444444 374.7202844444444 0 0 1 21.94242446222222-31.55436999111111c2.4272588799999992-3.155436657777778 23.957048888888888-30.340741119999993 32.45245553777778-41.457588906666665a1960.1332144355554 1960.1332144355554 0 0 1 84.22589667555556-102.67306666666667 1962.8031999999998 1962.8031999999998 0 0 1 84.22589667555556 102.67306666666667zM512 446.01481443555554a121.36296334222223 121.36296334222223 0 1 0 0 242.72592668444446 121.36296334222223 121.36296334222223 0 0 0 0-242.72592668444446z m0 48.54518556444444a72.81777777777778 72.81777777777778 0 1 1 0 145.63555555555556 72.81777777777778 72.81777777777778 0 0 1 0-145.63555555555556z"  horiz-adv-x="1024" />

    
    <glyph glyph-name="cejutubiao" unicode="&#58916;" d="M983.53437501 555.1996875c-0.320625 0.320625-0.74718749 0.4265625-1.06687501 0.7471875L684.01437499 854.293125c-0.320625 0.320625-0.4275 0.80062501-0.74718749 1.06687499A28.2665625 28.2665625 0 0 1 662.946875 863.6803125a29.9203125 29.9203125 0 0 1-22.45312499-8.6934375c-1.9734375-1.92-3.09375001-4.32-4.42687501-6.61312499L47.69374998 259.94625000999997c-2.293125-1.2796875-4.693125-2.4525-6.61312498-4.42593751A29.97374999 29.97374999 0 0 1 32.3871875 233.11874998999997a28.2665625 28.2665625 0 0 1 8.266875-20.37281249c0.3196875-0.320625 0.7996875-0.4265625 1.066875-0.74718749l298.3996875-298.34625001c0.3196875-0.3196875 0.4265625-0.7996875 0.74625-1.06687501a28.213125 28.213125 0 0 1 20.58750001-8.266875c7.9996875-0.2128125 15.999375 2.66718749 22.07906249 8.746875 1.760625 1.7596875 2.72062501 3.8934375 3.946875 5.86687501l589.65375 589.70625001c2.026875 1.2271875 4.15968749 2.13375001 5.919375 3.94687498a30.02625001 30.02625001 0 0 1 8.746875 22.08 28.213125 28.213125 0 0 1-8.2125 20.58750001z m-556.26750001-445.865625a33.013125 33.013125 0 0 0-46.56 0L207.6940625 282.39937499999996a32.85374999 32.85374999 0 1 0 46.6125 46.56l173.01375-173.12062499a32.85374999 32.85374999 0 0 0 0-46.56z m61.70625 177.91874999a31.41375001 31.41375001 0 0 0-44.42625 0L327.10718751 404.80125001a31.41375001 31.41375001 0 0 0 44.37374999 44.42624999L488.9740625 331.73437499c12.26624999-12.26718751 12.26624999-32.16000001 0-44.42718749z m177.9740625 61.70718751a32.85374999 32.85374999 0 0 0-46.5065625 0l-173.1196875 172.959375a32.85374999 32.85374999 0 1 0 46.56000001 46.61437499l173.06624999-172.96031249c12.853125-12.853125 12.853125-33.75937499 0-46.6134375z m61.70625 177.97312501a31.41375001 31.41375001 0 0 0-44.42625 0L566.7340625 644.42624999a31.41375001 31.41375001 0 0 0 44.42625001 44.37375001l117.49312499-117.493125c12.26718751-12.26718751 12.26718751-32.1065625 0-44.37374999z"  horiz-adv-x="1024" />

    
    <glyph glyph-name="shangxiajiantou" unicode="&#58885;" d="M893.416 261.749333L685.885333 10.525333000000046 472.896 261.749333h420.52z m0 0M472.896 299.978667h420.52c16.386667 0 27.308-10.921333 32.772-21.844 5.457333-16.385333 5.457333-32.770667-5.464-43.692L707.734667-16.775999999999954c-10.922667-16.385333-38.229333-16.385333-49.150667 0L446.666667 228.66666699999996s-12.166667 11.5-12 33.082666c0.5 18.250667 21.844 38.229333 38.229333 38.229334z m344.062667-81.921334H554.817333l131.068-152.917333 131.073334 152.917333z m0 0M893.416 451.614667L680.426667 697.374667l-207.530667-245.76h420.52z m0 0M472.896 413.385333h420.52c16.386667 0 27.308 10.921333 32.772 21.849334 5.457333 16.38 5.457333 32.765333-5.464 43.686666L707.734667 730.1453329999999c-10.922667 16.38-38.229333 16.38-49.150667 0L450.444 480S434.666667 462.536 434.666667 451.614667c0-21.844 16.385333-38.229333 38.229333-38.229334z m338.604 76.458667H549.354667L680.426667 642.76l131.073333-152.916z m0 0"  horiz-adv-x="1024" />

    
    <glyph glyph-name="biaoge" unicode="&#58924;" d="M928.64000002 61.49599999999998H185.92133302c-16.426667 0-27.306667 10.88-27.306666 27.301333V733.173333c0 16.426667-10.88 27.306667-27.308 27.306667-16.426667 0-27.306667-10.88-27.306667-27.306667v-671.786666c0-27.308 21.864-54.614667 54.614667-54.614667h764.582666c16.428 0 27.308 10.88 27.308 27.306667 0 16.428-10.88 27.417333-21.865333 27.417333zM240.53066702 274.401333h54.614666c5.442667 0 16.428 5.438667 21.870667 16.428l54.609333 92.796 81.921334-185.708s3.092-6.778667 6.064-9.750666 10.362667-6.670667 10.362666-6.670667c10.881333-5.442667 27.308 5.437333 32.745334 16.421333l109.229333 360.426667 76.478667-262.181333c0-10.88 10.88-21.870667 27.308-21.870667h136.530666c10.88-16.426667 27.308-27.306667 43.734667-27.306667 27.306667 0 54.614667 21.869333 54.614667 54.614667 0 32.744-21.869333 54.614667-54.614667 54.614667-21.864 0-38.188-10.88-43.734667-27.308h-120.213333l-98.344 333.12c0 10.88-16.426667 21.865333-32.749333 16.426666-5.437333 0-10.88-5.442667-10.88-5.442666s-5.438667-5.437333-5.438667-10.88L469.86400002 285.386667l-71.036 163.838666s-2.994667 8.608-9.494667 11.774667c-21.444 9.777333-34.136-11.774667-34.136-11.774667l-76.478666-120.105333h-38.188c-16.426667 0-27.301333-10.88-27.301334-27.306667 0-10.984 10.874667-27.412 27.301334-27.412z m0 0"  horiz-adv-x="1024" />

    
    <glyph glyph-name="baifenbi" unicode="&#58894;" d="M483.99250002 855.99499969v-60.23374969C237.02500002 789.735 38.24999971 590.96125031 38.24999971 350.01874969000005c0-246.9675 198.77500031-439.7175 439.71625032-439.7175 240.94249969 0 439.7175 198.77500031 439.7175 439.7175h66.25999968C989.96375034 627.09874969 761.07250002 855.99499969 483.98750034 855.99499969h0.00499968z m0-885.45874969c-210.825 0-379.48249969 168.65749969-379.48249968 379.48249969 0 210.82000031 168.65749969 379.48249969 379.48249968 379.48250062v-379.48250062H863.47499971c0-210.825-174.6825-379.48249969-379.48249969-379.48249969z m0 0"  horiz-adv-x="1024" />

    
    <glyph glyph-name="right" unicode="&#58938;" d="M723.1 412.6c-1.3 1.3-2.6 2.4-4 3.4L355.9 780c-14.6 14.6-38.4 14.6-53 0-14.6-14.6-14.6-38.5 0-53.1l340.4-341.2L302.9 45c-14.6-14.6-14.6-38.4 0-53 14.6-14.6 38.4-14.6 53 0l362.9 363.3c1.5 1.1 2.9 2.3 4.3 3.7 7.4 7.4 11 17.1 10.9 26.8 0.1 9.7-3.6 19.4-10.9 26.8z"  horiz-adv-x="1024" />

    
    <glyph glyph-name="baojing" unicode="&#59099;" d="M594.388 285.502h-84.72a9.996 9.996 0 0 0-9.276 6.213 9.998 9.998 0 0 0 2.213 10.942l49.119 48.695c5.175 5.071 8.024 11.97 8.024 19.425 0 7.353-2.87 14.272-8.061 19.463-5.223 5.172-12.183 8.02-19.6 8.02s-14.378-2.847-19.592-8.009L402.165 280.63c-10.549-10.448-10.544-27.558 0.004-38.944 6.951-7.475 17.949-11.108 33.624-11.108 0.742 0 1.49 0.009 2.332 0.025l82.013 0.001a9.998 9.998 0 0 0 9.275-6.212 9.998 9.998 0 0 0-2.21-10.941l-69.842-69.275c-5.494-5.494-8.52-12.77-8.52-20.485 0-7.537 3.016-14.704 8.451-20.14 5.46-5.354 12.759-8.304 20.553-8.304 7.808 0 15.038 2.93 20.376 8.267l114.922 113.934c16.045 15.57 17.647 30.384 16.169 40.053-2.064 13.255-13.903 27.673-34.924 28.001zM509.471 674.956c0.882 0 1.767-0.005 2.602-0.017 9.744 0 19.351-0.676 29.156-1.429l4.854-0.372V815.173c0 18.52-15.13 33.587-33.727 33.587-18.601 0-33.734-15.067-33.734-33.587v-141.896l4.82 0.37c7.6 0.648 16.636 1.309 26.029 1.309zM165.057 332.087a4.05 4.05 0 0 0-0.144 1.067c0 11.658 0.675 23.703 2.01 35.838l0.594 4.967H33.732C15.132 373.958 0 358.89 0 340.369c0-18.524 15.132-33.594 33.732-33.594h131.325v25.312zM777.217 553.166l3.115-3.637 97.046 96.361c6.445 6.45 9.994 14.981 9.994 24.023 0 8.956-3.549 17.438-9.98 23.87-6.422 6.362-14.958 9.866-24.035 9.866s-17.613-3.504-24.033-9.862l-97.285-96.604 3.693-3.101c15.473-13.002 29.433-26.77 41.485-40.916zM248.117 554.843l3.117 3.487c14.088 15.659 27.704 28.712 41.65 39.926l3.936 3.118-99.315 98.493c-6.352 6.292-14.812 9.757-23.82 9.757s-17.469-3.466-23.84-9.772c-6.337-6.21-9.826-14.631-9.826-23.715 0-8.954 3.5-17.384 9.846-23.728l98.252-97.566zM990.123 373.958H856.282l0.516-4.876c1.234-11.67 1.86-23.758 1.86-35.928v-26.233h131.465c18.551 0 33.748 15.081 33.877 33.589 0 18.443-15.197 33.448-33.877 33.448zM873.85-13.578h-59.685a4.031 4.031 0 0 0-4.031 4.031V330.749c0 162.724-133.334 295.11-297.223 295.11-163.894 0-297.231-132.386-297.231-295.11v-340.295a4.031 4.031 0 0 0-4.031-4.031h-60.112c-18.6 0-33.732-15.068-33.732-33.589 0-18.524 15.132-33.594 33.732-33.594h722.176c18.599 0 33.731 15.071 33.731 33.622 0.06 8.891-3.373 17.277-9.666 23.612-6.373 6.415-14.871 9.948-23.928 9.948z m-118.892 4.032a4.031 4.031 0 0 0-4.031-4.031H274.322a4.031 4.031 0 0 0-4.031 4.031v332.68c0 62.622 26.151 125.423 71.752 172.308 46.763 47.866 107.847 74.227 172.002 74.227 63.852 0 124.362-26.37 170.382-74.249 44.73-46.472 70.384-109.268 70.383-172.219l0.149-8.866v-323.881z"  horiz-adv-x="1024" />

    
    <glyph glyph-name="duobianxing" unicode="&#59046;" d="M759.808-46.08H264.192L14.336 384 264.192 814.08h497.664l247.808-430.08-249.856-430.08z m-460.8 61.44h425.984l212.992 368.64L724.992 752.64H299.008L86.016 384l212.992-368.64z"  horiz-adv-x="1024" />

    
    <glyph glyph-name="bianji" unicode="&#59021;" d="M802.05748148 411.91348148a24.27259259 24.27259259 0 0 1-24.27259259-24.27259261l0-263.19985776a2.64571259 2.64571259 0 0 0-2.58503111-2.58503111L248.80014222 121.856a2.64571259 2.64571259 0 0 0-2.58503111 2.58503111L246.21511111 650.84074667a2.64571259 2.64571259 0 0 0 2.58503111 2.58503111L512 653.42577778a24.27259259 24.27259259 0 0 1 0 48.54518519L248.80014221 701.97096297A51.19089778 51.19089778 0 0 1 197.66992592 650.84074667l0-526.39971556A51.19089778 51.19089778 0 0 1 248.80014222 73.31081482000002l526.39971556 0A51.19089778 51.19089778 0 0 1 826.33007408 124.44103111000004L826.33007408 387.64088889a24.27259259 24.27259259 0 0 1-24.2725926 24.27259259zM358.76712297 228.29131852a24.27259259 24.27259259 0 0 1 34.32144592-1e-8l431.67592296 431.6637867a24.27259259 24.27259259 0 1 1-34.33358222 34.33358221L358.76712297 262.63703703a24.27259259 24.27259259 0 0 1 0-34.34571851z"  horiz-adv-x="1024" />

    
    <glyph glyph-name="quxian" unicode="&#58951;" d="M972.363 650.646c-117.518-5.865-114.73-234.134-143.18-315.893-36.742-105.619-128.097-195.82-251.082-159.391-104.74 31.004-173.616 233.402-301.313 156.585-87.498-52.622-131.343-167.667-152.606-263.525-0.208-0.944-0.627-1.781-0.837-2.639v-98.895h816.359c17.994 0 32.658-14.642 32.658-32.658s-14.642-32.658-32.658-32.658h-849.017c-18.016 0-32.679 14.642-32.679 32.658v849.017c0 17.994 14.665 32.658 32.679 32.658 17.994 0 32.658-14.665 32.658-32.658v-528.724c23.547 42.775 52.747 81.947 89.153 112.386 110.835 92.4 226.174 27.002 303.117-67.201 48.661-59.637 143.89-98.916 206.4-28.97 48.368 53.982 59.451 133.227 73.59 201.77 21.43 104.131 47.718 237.046 176.654 243.434 42.191 2.095 41.959-63.2 0.105-65.295v0 0zM972.363 650.646z"  horiz-adv-x="1024" />

    
    <glyph glyph-name="ziyuan" unicode="&#58976;" d="M412.919298-127.987076a55.388845 55.388845 0 0 0-55.1048 46.725462L340.913799 29.658098999999993l-3.408544 1.56225A347.671522 347.671522 0 0 0 284.104727 60.76106600000003l-2.982476 2.13034-108.07926-42.606804a49.991983 49.991983 0 0 0-18.746994-3.266521 56.809072 56.809072 0 0 0-48.571756 28.404536L7.728591 211.44713000000002a53.116482 53.116482 0 0 0 13.066087 69.733136l91.320583 69.165046v4.118657a172.983625 172.983625 0 0 0-1.704272 29.398695c0 8.379338 0.710113 17.46879 1.56225 27.268355v3.834612l-2.840454 5.112817-87.912039 66.750659a53.684573 53.684573 0 0 0-13.066087 69.733136l99.415876 166.87665a52.832437 52.832437 0 0 0 47.719621 27.126332 54.820755 54.820755 0 0 0 19.741153-3.266522l107.795214-42.606804 2.982476 1.988318a396.669346 396.669346 0 0 0 53.684573 30.108808l3.550567 1.562249 15.33845 111.345782A54.962777 54.962777 0 0 0 412.919298 895.996449H610.756892a55.246823 55.246823 0 0 0 55.246823-47.009507l16.332608-110.2096 3.408544-1.562249a347.671522 347.671522 0 0 0 53.542551-29.966786l2.982476-2.13034 108.07926 42.606804a49.991983 49.991983 0 0 0 18.746994 3.266522 56.809072 56.809072 0 0 0 48.571756-28.404536l98.56374-166.024514a53.116482 53.116482 0 0 0-13.066086-69.733136l-91.036538-69.023022v-3.834613a292.282676 292.282676 0 0 0 1.846295-29.824763 292.424699 292.424699 0 0 0-1.846295-29.824762v-3.834613l91.036538-69.023022a53.116482 53.116482 0 0 0 14.202268-69.023023l-99.415876-167.586763a52.832437 52.832437 0 0 0-47.719621-27.126332 54.820755 54.820755 0 0 0-19.741153 3.266522l-107.795214 42.606804-2.982476-1.988318a397.663505 397.663505 0 0 0-53.684573-30.108808l-3.408545-1.562249-16.332608-111.203759A54.962777 54.962777 0 0 0 610.756892-127.987076z m-10.509678 162.615969l14.202268-102.398352h190.168369l19.741152 138.472113L659.328649 86.46717100000001a275.808045 275.808045 0 0 1 45.447257 25.564083l29.256673 19.315084 133.643342-51.838278 93.166878 157.645175L878.185599 299.50119199999995l-29.398695 22.723629 3.408545 36.925897a227.236289 227.236289 0 0 1 0.994158 24.711946A227.236289 227.236289 0 0 1 852.195449 408.858656l-3.408545 36.925897 29.398695 22.723629 82.6572 63.05807L866.397717 689.069404l-99.415877-39.19826-32.807239-12.640018-29.398695 19.315084a429.050517 429.050517 0 0 1-45.163212 25.42206L626.663432 697.1646969999999l-4.970794 36.073761-14.202268 102.398352H417.037956L397.722871 697.1646969999999l-32.665216-15.054404a276.660181 276.660181 0 0 1-45.447258-25.564083l-29.824763-19.315084-133.501319 51.838278-93.308901-157.645175 82.6572-63.05807 29.398695-22.723629-3.408545-36.925897a227.236289 227.236289 0 0 1-1.136181-24.711946 227.236289 227.236289 0 0 1 0.994159-24.853969l3.408544-36.925897-29.256672-22.723629-82.6572-62.916047 94.161037-157.645176 99.415876 39.19826 32.807239 12.640019 29.398695-19.315085A429.050517 429.050517 0 0 1 364.347542 86.46717100000001L397.722871 70.70265400000005zM511.341016 168.556281a215.448406 215.448406 0 1 0 215.874474 215.448406A215.590429 215.590429 0 0 0 511.341016 168.556281z m0 370.679195a155.23079 155.23079 0 1 1 156.224948-155.230789 155.372812 155.372812 0 0 1-156.224948 155.230789z"  horiz-adv-x="1024" />

    
    <glyph glyph-name="qinglihuancun" unicode="&#58889;" d="M786.6 180.1c-5.1 0-10.3 1.3-15.1 4.1L295.4 461.3c-14.3 8.3-19.2 26.7-10.8 41 8.3 14.3 26.7 19.2 41 10.8L801.7 236c14.3-8.3 19.2-26.7 10.8-41-5.6-9.5-15.6-14.9-25.9-14.9zM629.3-64c-14.7 0-29.3 4.2-42.1 11.6L186.1 181.3c-40 23.3-53.8 75.1-30.7 115.4l166.4 290.5c15 26.1 42.9 42.4 72.9 42.4 14.7 0 29.3-3.9 42.1-11.4l113.2-66 129 225.2c19.1 33.4 54.8 54.1 93.1 54.1 18.8 0 37.4-5 53.7-14.5 51.1-29.8 68.8-95.9 39.3-147.4L735.9 444l102-59.4c40-23.3 53.8-75 30.7-115.3L702.2-21.4c-14.9-26.1-42.9-42.6-72.9-42.6zM394.7 569.6c-8.6 0-16.5-4.7-20.8-12.2L207.5 266.9c-6.7-11.8-2.8-26.9 8.9-33.6l401.1-233.5c3.7-2.1 7.7-3.2 11.9-3.2 8.6 0 16.5 4.7 20.8 12.2l166.4 290.5c6.7 11.8 2.8 26.9-8.8 33.6L680 407.2c-14.2 8.3-19.1 26.5-10.9 40.8L813 699.4c13.2 23 5.4 52.5-17.4 65.7-7.2 4.2-15.3 6.4-23.5 6.4-16.9 0-32.6-9.2-41-23.9l-144-251.4c-4-6.9-10.5-12-18.3-14.1-7.7-2.1-15.9-1-22.9 3.1l-139.4 81.1c-3.6 2.2-7.6 3.3-11.8 3.3z"  horiz-adv-x="1024" />

    
    <glyph glyph-name="shengcheng" unicode="&#59105;" d="M764.8 582.4l-291.2-313.6-192 198.4c-12.8 12.8-32 12.8-44.8 0s-12.8-32 0-44.8l240-246.4 339.2 364.8c12.8 12.8 12.8 32-3.2 44.8-12.8 12.8-35.2 9.6-48-3.2zM928 896H96C41.6 896 0 854.4 0 800v-832c0-54.4 41.6-96 96-96h832c54.4 0 96 41.6 96 96V800c0 54.4-41.6 96-96 96z m32-928c0-19.2-12.8-32-32-32H96c-19.2 0-32 12.8-32 32V800c0 19.2 12.8 32 32 32h832c19.2 0 32-12.8 32-32v-832z"  horiz-adv-x="1024" />

    
    <glyph glyph-name="legend" unicode="&#58890;" d="M94 620.3V797.8h166.4v-177.5H94z m262.8 65.4v60.7h578v-60.7h-578zM94 288.6V466.1h166.4v-177.5H94zM356.8 354v60.7h578V354h-578zM94-43V134.5h166.4V-43H94z m262.8 65.4v60.7h578v-60.7h-578z"  horiz-adv-x="1024" />

    
    <glyph glyph-name="jiance" unicode="&#58987;" d="M835.36146823-13.766157669999984H160.01749147c-15.39827903 0-28.61627143-11.85531286-29.16134401-27.25358829-0.54507252-16.07961701 12.4003854-29.43387854 28.34373699-29.4338785h676.9791908c15.94335162 0 28.88880595 13.35425785 28.3437334 29.4338785-0.68133801 15.39827903-13.763065 27.25359189-29.16134042 27.25358829zM1001.74464044 785.99046194c0 13.08172343-5.04191485 25.34583973-14.30813756 34.61206238s-21.53033542 14.30813389-34.61205879 14.30813391H70.7619799c-14.03559942 0-27.11732281-5.8595219-36.51981092-16.48842418-8.0398085-8.99368459-12.26411632-20.98526647-12.26411628-33.24937915v-655.58512449c0-13.08172343 5.04191485-25.34583973 14.30813749-34.61205871 9.26621907-9.26621907 21.53033542-14.30813389 34.61205881-14.30813758h892.55509737c21.25780097 0 38.42756305 17.16976219 38.42755949 38.42756309-0.13626908 147.16938884-0.13626908 666.89536474-0.13626542 666.89536473z m-922.94284834-621.5181346v586.36100323c0 15.12574457 12.26411632 27.25359189 27.25358821 27.25359188h811.8844669c15.12574457 0 27.25359189-12.26411632 27.25359189-27.25359188v-587.17861032c0-14.58067206-11.85531286-26.43598118-26.43598486-26.43598484H106.05538031c-15.12574457 0-27.25359189 12.26411632-27.25358821 27.25359193zM819.82692014 415.06909254l-105.60766307 0.81760704c-0.68133801 0-1.36267953 0.27253442-1.63521403 0.68134166l-188.8673837 169.51733489c-0.68133801 0.54507252-1.49894864 0.95387606-2.18028663 1.22641053-0.95387606 0.27253442-1.77148308-0.13626908-2.45282466-0.8176071l-165.56556153-170.06240741c-0.54507252-0.54507252-1.22641054-0.81760703-1.77148675-0.81760704h-134.90527252c-19.7588523 0-35.56593482-16.07961701-35.56593481-35.70220387 0.13626908-19.48631779 15.80708254-35.1571313 35.29340035-35.2934004l136.94929373-0.27253447c10.49263324 0 23.43808753 4.90564583 29.84267834 13.76306137 0 0.13626908 0.13626908 0.13626908 0.13626904 0.27253812l135.7228832 141.5824014c1.09014516 1.09014516 2.58909012 1.09014516 3.81550067 0.136269l153.98278677-145.67044381c6.13205633-6.40459447 14.44440297-9.94756064 23.1655531-9.94756068h119.6432625c19.7588523 0 35.56593482 16.07961701 35.56593846 35.7022039-0.4088035 18.94124527-16.07961701 34.74832778-35.56593846 34.88459687z"  horiz-adv-x="1024" />

    
    <glyph glyph-name="jiazai" unicode="&#58990;" d="M915.310885 134.173257a7.314286 7.314286 0 1 1 14.599314 0 7.314286 7.314286 0 0 1-14.628572 0M769.405513-18.461257a10.4448 10.4448 0 1 1 20.918857 0 10.4448 10.4448 0 0 1-20.918857 0zM586.899456-108.163657a11.029943 11.029943 0 0 0-11.0592 11.0592c0 6.144 4.9152 11.0592 10.4448 11.0592 6.144 0 11.0592-4.9152 11.0592-11.0592s-4.3008-11.0592-10.4448-11.0592M363.199342-86.659657a14.7456 14.7456 0 1 1 29.4912 0 14.7456 14.7456 0 0 1-29.4912 0zM193.595685-6.787657a17.846857 17.846857 0 1 0 17.8176 17.846857c0-9.8304-7.3728-17.846857-17.846858-17.846857M68.228827 156.086857a21.357714 21.357714 0 0 0-21.533257 21.504c0 11.702857 9.8304 21.504 21.533257 21.504 11.6736 0 21.504-9.8304 21.504-21.504a21.357714 21.357714 0 0 0-21.504-21.504M986.347227 341.664914a66.501486 66.501486 0 0 0-66.3552 66.384457 66.121143 66.121143 0 0 0 66.3552 66.384458 66.121143 66.121143 0 0 0 66.384458-66.413715 66.121143 66.121143 0 0 0-66.384458-66.3552M25.19157 357.668571A24.927086 24.927086 0 0 0 0.00117 382.829714c0 14.160457 11.0592 25.219657 25.1904 25.219657s25.1904-11.0592 25.1904-25.1904a24.927086 24.927086 0 0 0-25.161143-25.1904M927.364827 550.619429a59.684571 59.684571 0 0 0-59.626057 59.626057 58.514286 58.514286 0 0 0 17.2032 41.7792 59.5968 59.5968 0 0 0 41.808457 17.2032 59.684571 59.684571 0 0 0 59.5968-59.5968 58.221714 58.221714 0 0 0-58.9824-59.011657M72.529627 557.377829a28.847543 28.847543 0 1 0 0 57.782857 28.847543 28.847543 0 1 0 0-57.782857M789.066313 714.108343a52.8384 52.8384 0 0 0-52.8384 52.8384c0 29.4912 23.3472 52.8384 52.867657 52.8384 29.4912 0 52.8384-23.3472 52.8384-52.8384a52.458057 52.458057 0 0 0-52.8384-52.8384M202.168027 715.951543a34.347886 34.347886 0 0 0-24.576 58.368 34.347886 34.347886 0 0 0 58.368-24.576c0-19.0464-15.330743-33.792-33.762742-33.792M597.344256 803.84a46.431086 46.431086 0 0 0-46.08 46.08c0 25.161143 20.8896 46.08 46.08 46.08s46.08-20.8896 46.08-46.08c0-25.219657-20.2752-46.109257-46.08-46.109257M389.004142 804.425143c-21.504 0-39.3216 17.846857-39.3216 39.350857s17.846857 39.3216 39.3216 39.3216c21.504 0 39.350857-17.846857 39.350857-39.3216 0-21.533257-17.846857-39.350857-39.350857-39.350857"  horiz-adv-x="1053" />

    
    <glyph glyph-name="dingwei1" unicode="&#58909;" d="M523.906977-56.55814C452.703256-56.55814 154.790698 224.422698 154.790698 500.688372 154.790698 705.869395 320.059535 872.186047 523.906977 872.186047 727.754419 872.186047 893.023256 705.869395 893.023256 500.688372 893.023256 224.446512 595.110698-56.55814 523.906977-56.55814zM512-128C433.890233-128 107.162791 184.034233 107.162791 490.829395 107.162791 714.585302 288.410791 896 512 896s404.837209-181.414698 404.837209-405.170605C916.837209 184.034233 590.109767-128 512-128z m0 957.701953c-182.938791 0-331.252093-148.432372-331.252093-331.514046C180.747907 266.763907 425.722047-17.503256 512-17.503256c81.729488 0 331.252093 281.957209 331.252093 515.691163 0 87.921116-34.911256 172.246326-97.04186 234.424558A331.085395 331.085395 0 0 1 512 829.701953z m0-442.01079a110.449116 110.449116 0 0 0-110.401488 110.496744A110.449116 110.449116 0 0 0 512 608.684651a110.449116 110.449116 0 0 0 110.401488-110.496744A110.449116 110.449116 0 0 0 512 387.691163z"  horiz-adv-x="1024" />

    
    <glyph glyph-name="CheckFilled" unicode="&#58939;" d="M512 844.8C258.048 844.8 51.2 637.952 51.2 384s206.848-460.8 460.8-460.8 460.8 206.848 460.8 460.8S765.952 844.8 512 844.8z m239.616-321.536l-307.2-307.2c-4.096-4.096-9.216-6.144-14.336-6.144s-10.24 2.048-14.336 6.144l-153.6 153.6c-8.192 8.192-8.192 20.48 0 28.672s20.48 8.192 28.672 0L430.08 259.072l292.864 292.864c8.192 8.192 20.48 8.192 28.672 0 8.192-8.192 8.192-20.48 0-28.672z"  horiz-adv-x="1024" />

    
    <glyph glyph-name="tuceng" unicode="&#58882;" d="M792.64575195 424.45715333l9.97009278-6.26220704c20.43457031-12.85400391 26.61437989-39.79797364 13.76037597-60.31494141-3.46069336-5.52062989-8.15734864-10.21728516-13.76037598-13.76037597L535.40087891 176.27600097000004c-14.25476075-8.89892578-32.29980469-8.89892578-46.47216797 1e-8L221.38415527 344.44921875c-20.43457031 12.85400391-26.61437989 39.79797364-13.76037597 60.31494141 3.46069336 5.52062989 8.15734864 10.21728516 13.76037598 13.76037598l9.97009277 6.26220702L488.84631347 262.87573241999996c14.25476075-8.89892578 32.29980469-8.89892578 46.47216798 0l257.24487304 161.49902344 0.08239746 0.08239746z m0-128.62243653l9.97009278-6.26220703c20.43457031-12.85400391 26.61437989-39.79797364 13.76037597-60.31494141-3.46069336-5.52062989-8.15734864-10.21728516-13.76037598-13.76037598L535.40087891 47.653564449999976c-14.25476075-8.89892578-32.29980469-8.89892578-46.47216797 0L221.38415527 215.82678222000004c-20.43457031 12.85400391-26.61437989 39.79797364-13.76037597 60.31494142 3.46069336 5.52062989 8.15734864 10.21728516 13.76037598 13.76037597l9.97009277 6.26220703L488.84631347 134.33569336000005c14.25476075-8.89892578 32.29980469-8.89892578 46.47216798 0l257.24487304 161.49902344h0.08239746zM535.07128906 718.20410156l267.46215821-168.17321778c20.43457031-12.85400391 26.61437989-39.79797364 13.76037598-60.31494139-3.46069336-5.52062989-8.15734864-10.21728516-13.76037598-13.76037598L535.40087891 308.19433594c-14.25476075-8.89892578-32.29980469-8.89892578-46.47216797 0L221.38415527 476.44995117c-20.43457031 12.85400391-26.61437989 39.79797364-13.76037597 60.31494141 3.46069336 5.52062989 8.15734864 10.21728516 13.76037598 13.76037598l267.29736327 167.84362792c14.25476075 8.89892578 32.29980469 8.89892578 46.47216798 0l-0.08239747-0.16479492z"  horiz-adv-x="1024" />

    
    <glyph glyph-name="rizhi" unicode="&#58985;" d="M832.5 772.5h-144v28a32 32 0 0 1-32 32h-288a32 32 0 0 1-32-32v-28h-144a32 32 0 0 1-32-32v-772a32 32 0 0 1 32-32h640a32 32 0 0 1 32 32v772a32 32 0 0 1-32 32z m-424-12h208v-48h-208z m384-752h-560v692h104v-28a32 32 0 0 1 32-32h288a32 32 0 0 1 32 32v28h104zM296 575.5m8 0l416 0q8 0 8-8l0-48q0-8-8-8l-416 0q-8 0-8 8l0 48q0 8 8 8ZM296 447.5m8 0l416 0q8 0 8-8l0-48q0-8-8-8l-416 0q-8 0-8 8l0 48q0 8 8 8ZM296 319.5m8 0l200 0q8 0 8-8l0-48q0-8-8-8l-200 0q-8 0-8 8l0 48q0 8 8 8Z"  horiz-adv-x="1024" />

    
    <glyph glyph-name="zaixianduibiweijihuo" unicode="&#59356;" d="M192.037 128.19799999999998h256.05v-63.919H128.025V704.216h320.062V641.2H191.041zM577.112 128.01099999999997h63.012v-63.016h-63.012zM832.476 127.87099999999998h63.015v-63.016h-63.015zM832.476 255.70799999999997h63.015v-63.015h-63.015zM705.083 127.87099999999998h63.015v-63.016h-63.015zM832.476 447.791h63.015v-127.339h-63.015zM832.476 575.777h63.015v-63.015h-63.015zM705.083 702.736h63.015v-63.016h-63.015zM832.477 702.736h63.012v-63.016h-63.012zM577.111 702.736h63.015v-63.016h-63.015zM479.825 768.01h63.016v-767.649h-63.016z"  horiz-adv-x="1024" />

    
    <glyph glyph-name="xiaoxi1" unicode="&#58919;" d="M296.413867 205.9264h431.172266V455.236267c0 118.033067-96.529067 213.674667-215.586133 213.674666s-215.586133-95.6416-215.586133-213.674666v-249.309867zM512 722.363733c148.821333 0 269.482667-119.6032 269.482667-267.127466v-302.762667H242.517333v302.762667c0 147.524267 120.661333 267.127467 269.482667 267.127466zM170.666667 205.9264m25.6 0l631.466666 0q25.6 0 25.6-25.6l0-2.218667q0-25.6-25.6-25.6l-631.466666 0q-25.6 0-25.6 25.6l0 2.218667q0 25.6 25.6 25.6ZM494.865067 770.2528h34.0992a27.306667 27.306667 0 0 0 27.306666-27.306667v-50.449066h-88.746666V742.946133a27.306667 27.306667 0 0 0 27.306666 27.306667zM378.299733 67.720533a21.742933 21.742933 0 0 0 3.310934 17.032534c4.573867 6.826667 12.9024 11.776 22.7328 13.038933 16.349867 2.1504 32.5632-6.485333 35.84-20.650667 1.160533-5.290667 5.188267-14.1312 12.6976-22.6304 12.3904-14.0288 30.788267-22.869333 57.002666-23.8592 43.076267-2.048 64.7168 22.4256 71.0656 47.104 3.618133 14.1312 20.138667 22.4256 36.317867 19.831467 16.964267-2.4576 29.047467-15.9744 25.019733-30.788267-12.322133-46.830933-59.5968-87.6544-128.477866-87.6544h-2.423467a263.5776 263.5776 0 0 0-4.642133 0.170667c-71.5776 2.730667-118.3744 43.4176-128.443734 88.405333z"  horiz-adv-x="1024" />

    
    <glyph glyph-name="del" unicode="&#58902;" d="M512 454.3074864L254.32190232 712.0435926499999a49.71412125 49.71412125 0 1 1-70.30748493-70.30748639L441.63450503 384l-257.73610772-257.67809768a49.71412125 49.71412125 0 1 1 70.30748639-70.30748492L512 313.63450504l257.67809768-257.73610773a49.71412125 49.71412125 0 1 1 70.30748493 70.3074864L582.36549497 384l257.73610772 257.67809769a49.71412125 49.71412125 0 1 1-70.30748639 70.30748492L512 454.36549497z"  horiz-adv-x="1024" />

    
    <glyph glyph-name="qidong" unicode="&#58975;" d="M512 832C264.79 832 64 631.21 64 384s200.79-448 448-448 448 200.79 448 448S759.21 832 512 832z m0-842.02c-216.98 0-394.02 177.04-394.02 394.02S295.02 778.02 512 778.02 906.02 600.98 906.02 384 728.98-10.02 512-10.02zM757.05 402.35L418.08 597.74c-8.64 4.32-18.35 4.32-26.99 0-8.64-4.32-14.03-14.03-14.03-23.75v-391.87c0-9.72 5.4-18.35 12.95-23.75 4.32-2.16 8.64-3.24 12.95-3.24 4.32 0 9.72 1.08 12.95 3.24l338.97 195.39c8.64 4.32 12.95 14.03 12.95 23.75 0.02 9.73-2.14 19.44-10.78 24.84zM431.04 229.63V527.58L690.12 378.6 431.04 229.63z"  horiz-adv-x="1024" />

    
    <glyph glyph-name="liebiao-Outline" unicode="&#59137;" d="M176 720v-224h224V720H176zM144 784h288c17.6 0 32-14.4 32-32v-288c0-17.6-14.4-32-32-32H144c-17.6 0-32 14.4-32 32V752c0 17.6 14.4 32 32 32z m32-512v-224h224V272H176z m-32 64h288c17.6 0 32-14.4 32-32v-288c0-17.6-14.4-32-32-32H144c-17.6 0-32 14.4-32 32V304c0 17.6 14.4 32 32 32z m448 302.4c-17.6 0-32 14.4-32 32s14.4 32 32 32h288c17.6 0 32-14.4 32-32s-14.4-32-32-32H592z m0-142.4c-17.6 0-32 14.4-32 32s14.4 32 32 32h288c17.6 0 32-14.4 32-32s-14.4-32-32-32H592z m0-304c-17.6 0-32 14.4-32 32s14.4 32 32 32h288c17.6 0 32-14.4 32-32s-14.4-32-32-32H592z m0-144c-17.6 0-32 14.4-32 32s14.4 32 32 32h288c17.6 0 32-14.4 32-32s-14.4-32-32-32H592z"  horiz-adv-x="1024" />

    
    <glyph glyph-name="shuqianbiaozhubiaojizhengshurenzhengmianxing" unicode="&#58901;" d="M426.667 824.889v-424.277c0-17.039 13.795-30.834 30.833-30.834h7.282a56.889 56.889 0 0 1 40.22 16.64l72.25 72.192a28.444 28.444 0 0 0 40.192 0l72.448-72.25a56.889 56.889 0 0 1 40.163-16.582h7.197A30.72 30.72 0 0 1 768 400.498V824.888h56.889A56.889 56.889 0 0 0 881.778 768v-768a56.889 56.889 0 0 0-56.89-56.889H199.112A56.889 56.889 0 0 0 142.222 0V768a56.889 56.889 0 0 0 56.89 56.889h227.555z m56.889 0H711.11v-379.534l-73.557 73.557a56.889 56.889 0 0 1-80.441 0l-73.557-73.557V824.889z"  horiz-adv-x="1024" />

    
    <glyph glyph-name="mail" unicode="&#59044;" d="M736 544h-448A32 32 0 0 0 256 576a32 32 0 0 0 32 32h448a32 32 0 0 0 32-32 32 32 0 0 0-32-32zM736 352h-448A32 32 0 0 0 256 384a32 32 0 0 0 32 32h448a32 32 0 0 0 32-32 32 32 0 0 0-32-32zM736 160h-448A32 32 0 0 0 256 192a32 32 0 0 0 32 32h448a32 32 0 0 0 32-32 32 32 0 0 0-32-32zM870.4 789.12v-810.24H153.6V789.12h716.8m0 64H153.6a64 64 0 0 1-64-64v-810.24a64 64 0 0 1 64-64h716.8a64 64 0 0 1 64 64V789.12a64 64 0 0 1-64 64z"  horiz-adv-x="1024" />

    
    <glyph glyph-name="detail" unicode="&#59047;" d="M780.8-21.33333300000004H243.2c-38.4 0-68.266667 32-68.266667 68.266666V721.066667C172.8 757.333333 204.8 789.333333 243.2 789.333333h388.266667c19.2 0 36.266667-6.4 49.066666-19.2l151.466667-149.333333c12.8-12.8 21.333333-32 21.333333-49.066667v-524.8c-2.133333-36.266667-34.133333-68.266667-72.533333-68.266666zM243.2 729.6c-6.4 0-10.666667-4.266667-10.666667-10.666667v-672c0-6.4 4.266667-10.666667 10.666667-10.666666h539.733333c6.4 0 10.666667 4.266667 10.666667 10.666666V571.733333c0 2.133333 0 4.266667-2.133333 6.4l-151.466667 149.333334c-2.133333 2.133333-4.266667 2.133333-6.4 2.133333H243.2zM667.733333 354.133333H356.266667c-17.066667 0-29.866667 12.8-29.866667 29.866667s12.8 29.866667 29.866667 29.866667h309.333333c17.066667 0 29.866667-12.8 29.866667-29.866667s-12.8-29.866667-27.733334-29.866667zM667.733333 192H356.266667c-17.066667 0-29.866667 12.8-29.866667 29.866667 0 17.066667 12.8 29.866667 29.866667 29.866666h309.333333c17.066667 0 29.866667-12.8 29.866667-29.866666 0-17.066667-12.8-29.866667-27.733334-29.866667zM821.333333 533.333333h-134.4c-38.4 0-68.266667 32-68.266666 68.266667v128c0 17.066667 10.666667 32 25.6 38.4 14.933333 6.4 34.133333 2.133333 44.8-8.533333L832 618.666667c12.8-12.8 19.2-29.866667 19.2-46.933334v-10.666666c0-14.933333-12.8-27.733333-29.866667-27.733334z m-145.066666 155.733334v-87.466667c0-6.4 4.266667-10.666667 10.666666-10.666667h89.6l-100.266666 98.133334z"  horiz-adv-x="1024" />

    
    <glyph glyph-name="zhongzhi" unicode="&#58923;" d="M870.912 695.808V782.555429a36.571429 36.571429 0 1 0 73.142857 0v-182.857143a36.571429 36.571429 0 0 0-36.571428-36.571429h-182.857143a36.571429 36.571429 0 1 0 0 73.142857h100.717714A402.285714 402.285714 0 1 1 914.285714 384a36.571429 36.571429 0 1 0 73.142857 0.073143 475.428571 475.428571 0 1 0-116.516571 311.808z"  horiz-adv-x="1024" />

    
    <glyph glyph-name="kpi" unicode="&#58904;" d="M663.5 499.6L538.2 371.2l-44.9-44.9-89.8 89.8L301 318.4c-12.4-12.4-32.5-12.4-44.9 0-12.4 12.4-12.4 32.5 0 44.9l125 120.1 22.4 22.4 89.8-89.8 137 140.2h-62.1c-17.5 0-31.8 14.2-31.8 31.7s14.2 31.8 31.7 31.8h127c17.5 0 31.8-14.2 31.8-31.8v-127c0-17.5-14.2-31.8-31.8-31.8-17.5 0-31.8 14.2-31.8 31.8l0.2 38.7zM171.1 793.5h680.4c37.6 0 68-30.5 68-68V45c0-37.6-30.5-68-68-68H171.1c-37.6 0-68 30.5-68 68V725.4c0 37.6 30.5 68.1 68 68.1z m-4.5-63.5v-689.5h689.5V730H166.6z m130.9-530.8h427.7c19.7 0 35.6-14.2 35.6-31.8 0-17.5-16-31.8-35.6-31.8H297.5c-19.7 0-35.6 14.2-35.6 31.8s15.9 31.8 35.6 31.8z"  horiz-adv-x="1024" />

    
    <glyph glyph-name="quyuguanli1" unicode="&#58897;" d="M0 896h1024v-1024H0zM370.2016 194.2016a2762.24 2762.24 0 0 1 115.5584-145.024 51.2 51.2 0 0 1 78.08 0 2762.24 2762.24 0 0 1 115.5584 145.024C807.2192 175.36 896 133.888 896 85.7088c0-65.92-166.1952-119.3216-371.2-119.3216S153.6 19.7888 153.6 85.6832c0 48.1792 88.7808 89.6768 216.6016 108.544zM564.4032 138.2912a51.2 51.2 0 0 0-79.2064 0c-150.3744 183.5776-225.536 320.384-225.536 410.4448 0 146.432 118.7072 265.1392 265.1392 265.1392s265.1392-118.7072 265.1392-265.1392c0-90.0608-75.1616-226.8672-225.536-410.4448zM524.8 409.984a132.5824 132.5824 0 1 1 0 265.1392 132.5824 132.5824 0 0 1 0-265.1392z"  horiz-adv-x="1024" />

    
    <glyph glyph-name="shoucang" unicode="&#58880;" d="M773.461-109.43100000000004c-14.404 0-30.583 4.13-45.602 11.639L513.57 9.386999999999944 297.95-97.62099999999998c-13.653-7.27-29.287-11.094-45.227-11.094a96.256 96.256 0 0 0-57.549 18.842c-30.173 22.63-45.636 61.85-38.502 97.553l44.1 228.762-169.028 157.56A104.073 104.073 0 0 0 5.461 494.66l0.342 1.16c12.288 36.83 42.769 62.635 79.735 67.585l234.837 42.7L425.78 820.19c16.93 33.894 51.37 55.671 87.791 55.671 37.99 0 73.319-22.596 88.132-56.286l105.063-213.401 234.871-41.063a95.676 95.676 0 0 0 78.268-68.369 98.987 98.987 0 0 0-24.474-101l-0.58-0.58-168.55-158.72 42.598-229.172c6.86-36.659-7.714-73.66-38.059-96.733a90.283 90.283 0 0 0-57.378-19.968zM513.673 71.71400000000006l239.104-119.569c7.031-3.55 15.12-5.768 20.65-5.768 8.534 0 16.452 2.628 22.255 7.475l1.092 0.887c13.585 10.206 20.207 26.385 17.238 42.257l-48.128 259.209L956.21 435.439c11.674 11.844 15.667 28.808 10.48 44.407l-0.513 1.639a39.185 39.185 0 0 1-32.529 28.365l-1.092 0.17-263.339 46.046L550.708 796.81c-5.77 13.448-21.368 23.21-37.138 23.21-15.496 0-30.31-9.694-37.82-24.678L357.99 556.169 93.252 508.075c-16.077-2.014-28.57-12.698-34.338-29.355-4.096-15.223 0.751-33.553 11.947-44.988l190.532-177.561-50.005-259.345c-3.004-14.985 4.096-32.256 17.237-42.12 6.588-4.95 15.121-7.68 24.064-7.68 6.895 0 13.517 1.603 19.217 4.675l0.82 0.478 240.947 119.535z"  horiz-adv-x="1024" />

    
    <glyph glyph-name="shanchu2" unicode="&#58933;" d="M834.564437-32.187733c0-35.2256-64.512-33.245867-98.884266-33.245867H227.673771c-34.4064 0-33.962667 22.2208-33.962667 57.480533V701.44H834.564437V-32.187733zM349.666304 806.638933c0 7.3728 6.9632 24.1664 14.1312 24.1664h311.842133c7.168 0 12.4928-16.7936 12.4928-24.1664v-38.5024h-338.466133V806.638933zM986.457771 768.136533h-236.782934V806.570667c0 49.2544-39.253333 89.429333-87.176533 89.429333h-300.168533C314.372437 896 275.187371 855.825067 275.187371 806.638933v-38.5024h-237.568A37.9904 37.9904 0 0 1 0.004437 729.565867c0-21.2992 16.7936-26.624 37.614934-26.624H128.004437v-689.937067C128.004437-64.853333 115.306837-128 191.287637-128h645.0176c76.014933 0 60.347733 33.655467 60.347734 111.5136V702.941867h89.736533c20.821333 0 37.614933 6.144 37.614933 27.4432a37.307733 37.307733 0 0 1-37.614933 37.751466h0.068267zM641.028437 62.8736V536.917333c0 21.333333-11.332267 38.638933-32.085333 38.638934-20.821333 0-32.187733-17.3056-32.187733-38.638934v-474.0096c0-21.333333 11.332267-29.2864 32.187733-29.2864 20.753067 0 32.085333 7.953067 32.085333 29.2864z m-192.6144 1.399467V538.282667c0 21.333333-11.3664 37.205333-32.085333 37.205333-20.923733 0-31.812267-15.872-31.812267-37.137067v-474.077866c0.750933-21.333333 11.707733-28.7744 31.778134-28.7744 20.753067 0 32.085333 7.441067 32.085333 28.7744z"  horiz-adv-x="1024" />

    
    <glyph glyph-name="shubiaozhizhen" unicode="&#58982;" d="M812.840421 292.864c11.102316-10.778947 13.635368-23.282526 7.599158-37.295158-6.197895-14.389895-16.707368-21.557895-31.959579-21.557895H581.955368l108.705685-257.239579a35.139368 35.139368 0 0 0-18.378106-45.379368l-95.770947-40.582737a35.139368 35.139368 0 0 0-45.379368 18.378105l-103.262316 244.304843-168.528842-168.852211a33.522526 33.522526 0 0 0-37.241263-7.545263c-14.443789 6.197895-21.557895 16.707368-21.557895 32.013474V821.840842c0 15.090526 7.114105 25.815579 21.557895 31.959579a33.253053 33.253053 0 0 0 37.241263-7.545263l553.498947-553.391158z"  horiz-adv-x="1024" />

    
    <glyph glyph-name="activities" unicode="&#58949;" d="M511.341714 495.323429a34.084571 34.084571 0 0 1-34.011428-34.084572v-306.468571a34.084571 34.084571 0 0 1 68.096 0v306.468571a34.084571 34.084571 0 0 1-34.084572 34.084572z m0 400.237714a510.902857 510.902857 0 1 1 0-1021.805714 510.902857 510.902857 0 0 1 0 1021.805714z m0-953.782857a442.806857 442.806857 0 1 0 0 885.686857 442.806857 442.806857 0 0 0 0-885.613714z m0 706.852571a42.569143 42.569143 0 1 1 0-85.138286 42.569143 42.569143 0 0 1 0 85.138286z"  horiz-adv-x="1024" />

    
    <glyph glyph-name="zhuanhuanjilu" unicode="&#58930;" d="M510.28287314 798.0579c228.52168781 0 413.77366219-185.25197344 413.77366219-413.77951031 0-228.52168781-185.25197344-413.77366219-413.77366219-413.77366219-228.52753688 0-413.77951031 185.25197344-413.77951031 413.77366219 0 228.52753688 185.25197344 413.77951031 413.77951031 413.77951031m0 65.33385375c-264.60941625 0-479.11336406-214.50394781-479.11336312-479.11336406 0-264.60356719 214.50394781-479.107515 479.11336312-479.107515 264.60356719 0 479.107515 214.50394781 479.10751594 479.107515 0 264.60941625-214.50394781 479.11336406-479.10751594 479.11336406z m0 0M700.40081846 497.95964531H387.02056721l54.31757531 54.31757438c10.49108063 10.87942313 10.33551 28.16531812-0.35208188 38.85174-10.68642187 10.68759094-27.96763781 10.8431625-38.85057 0.35208093l-101.57247281-101.57715093a28.05653531 28.05653531 0 0 1-7.187835-12.63398063v-6.74802562a28.53143625 28.53143625 0 0 1 8.05575563-19.60191094 27.88809844 27.88809844 0 0 1 19.60191093-8.05575563h379.36796907c15.27400312 0 27.65649656 12.38249344 27.6564975 27.65766657s-12.38249344 27.65649656-27.6564975 27.65649656v-0.21873469zM320.15907971 270.38307843999996H633.54401002l-54.31757438-54.53747906c-10.14835781-10.92036281-9.81031312-27.92202 0.75796875-38.43064688 10.57296-10.513305 27.57578719-10.75543406 38.44117313-0.54859125l101.57715187 101.57247281a28.76654625 28.76654625 0 0 1 7.18198688 12.41407594v6.75387469a27.43308281 27.43308281 0 0 1-27.6564975 27.65649656H320.15907971a27.66000563 27.66000563 0 0 1-25.98381938-13.01764312 27.66936375 27.66936375 0 0 1 0-29.06365125 27.66000563 27.66000563 0 0 1 25.98381938-13.01764313v0.21873469z m0 0"  horiz-adv-x="1024" />

    
    <glyph glyph-name="dian" unicode="&#58892;" d="M512 384m-247.80757447 0a48.39991689 48.39991689 0 1 1 495.61514894 0 48.39991689 48.39991689 0 1 1-495.61514894 0Z"  horiz-adv-x="1024" />

    
    <glyph glyph-name="zichan" unicode="&#59126;" d="M516.93 805.246l416.976-211.544c5.91-2.999 8.27-10.22 5.272-16.131a12 12 0 0 0-5.272-5.273L516.929 360.754a12 12 0 0 0-10.858 0L89.094 572.298c-5.91 2.999-8.27 10.22-5.272 16.131a12 12 0 0 0 5.272 5.273L506.071 805.246a12 12 0 0 0 10.858 0zM229 582.5L512 439l283 143.5L512 726 229 582.5z m712-132.57v-63.262a8 8 0 0 0-4.278-7.082L528.747 165.183a36 36 0 0 0-33.494 0L87.278 379.586A8 8 0 0 0 83 386.668V449.93a8 8 0 0 0 11.722 7.082L512 237.719l417.278 219.293A8 8 0 0 0 941 449.93z m0-199v-63.262a8 8 0 0 0-4.278-7.082L528.747-33.817a36 36 0 0 0-33.494 0L87.278 180.586A8 8 0 0 0 83 187.668V250.93a8 8 0 0 0 11.722 7.082L512 38.719l417.278 219.293A8 8 0 0 0 941 250.93z"  horiz-adv-x="1024" />

    
    <glyph glyph-name="worldmap" unicode="&#58918;" d="M176.298667 383.40266699999995c0-185.088 149.802667-335.104 334.634666-335.104s334.634667 150.016 334.634667 335.104-149.802667 335.146667-334.634667 335.146666-334.634667-150.058667-334.634666-335.146666z m334.634666 292.48c161.28 0 291.968-130.944 291.968-292.48 0-161.536-130.730667-292.437333-291.968-292.437334-161.28 0-291.968 130.901333-291.968 292.437334s130.730667 292.48 291.968 292.48zM506.453333 437.333333l0.853334 0.426667a30.08 30.08 0 0 0-1.962667 4.394667c0.426667-1.621333 0.810667-3.2 1.152-4.821334zM635.093333 297.64266699999996v0.085333c-0.085333 0.042667-0.469333 0.042667-0.554666 0.170667 0.128-0.128 0.426667-0.128 0.554666-0.256zM637.525333 298.410667c-1.109333 0.426667-3.626667-0.384-4.650666 1.365333-0.597333-5.077333 0.341333-6.997333 4.650666-1.365333zM724.693333 587.605333c-11.52-0.341333-19.541333-0.341333-28.842666-6.741333-3.712-2.602667-6.229333-6.016-10.965334-7.338667-4.266667-1.194667-8.832-0.170667-13.056-1.578666-15.232-5.162667-12.8-37.802667-32.853333-32.853334-9.386667 2.304-16.042667 13.44-20.778667 20.693334-4.181333 6.4-11.776 11.690667-6.613333 19.712-2.346667-0.597333-4.864 0.085333-7.168-0.341334 3.242667 7.04 13.994667 6.4 15.786667 10.026667 4.437333 9.045333-12.288 9.984-17.066667 11.221333 5.76 6.101333 8.661333-2.048 14.293333-0.64 5.418667 1.322667-2.858667 8.490667-6.101333 9.258667-1.194667 0.298667-20.266667-5.248-9.216 4.650667l-40.917333 26.112c-2.304-9.685333 18.133333-15.189333 24.832-18.602667-1.024-4.010667-7.253333-9.813333-11.989334-8.106667-4.48 1.578667-2.688 9.045333-9.429333 8.277334-4.821333-11.264 10.24-7.936 11.605333-14.848 1.578667-7.850667-5.674667-4.522667-8.490666-4.394667-0.682667 0-5.888 5.461333-6.144 1.365333-0.341333-4.864 8.277333-2.986667 8.917333-7.893333-10.069333-0.426667-15.232 3.242667-23.466667 8.704-9.557333 6.4-14.506667 5.802667-26.197333 5.802667 3.498667 1.450667 8.32 2.517333 11.349333 4.821333 1.621333 1.28 8.064 7.552 8.490667 8.96 1.834667 5.973333-0.085333 5.546667-5.845333 9.514667-5.12 3.498667-11.349333 9.813333-17.578667 11.050666-22.485333 4.48-6.912-20.352-23.978667-23.765333h0.853334-0.981334 0.128c-3.968 0.128-11.349333 1.109333-13.909333-0.981333-1.792-1.493333-1.92-7.381333-3.968-9.514667-3.541333-3.84-8.874667-4.565333-13.141333-7.338667-4.181333-2.688-13.354667-9.557333-15.786667-14.250666-9.002667-17.237333 20.309333-22.613333 31.402667-27.605334 5.034667-2.304 19.712-5.418667 22.442666-9.216 3.669333-5.12-3.157333-9.898667 4.48-13.482666 2.432-1.152 7.466667-1.365333 9.6 0.981333 3.413333 3.84-1.408 4.736-2.218666 9.216-1.578667 8.576 1.024 5.162667 5.333333 8.362667 8.789333 6.485333 6.826667 6.869333 3.669333 17.237333-1.493333 4.821333-7.04 18.261333-2.133333 21.802667 6.314667 4.693333 19.882667-2.474667 24.746667-3.114667 5.674667-0.682667 8.874667-8.533333 11.946666-11.776 2.090667-2.133333 5.76-6.656 9.344-6.144 5.674667 0.768 3.285333 5.76 6.613334 8.064 8.832 6.144 11.178667-2.218667 14.677333-10.581333 3.328-7.850667 6.485333-10.752 12.373333-15.786667 2.773333-2.346667 14.762667-10.666667 13.653334-15.872-0.768-3.413333-14.506667-8.704-18.176-9.898667-13.44-4.266667-38.613333 6.997333-41.301334-14.336 5.205333 1.962667 20.010667 14.08 24.448 8.32 2.005333-2.602667-1.621333-6.4-0.768-8.96 2.56-7.808 8.533333-5.12 14.805334-3.84a10.837333 10.837333 0 0 0-1.322667-0.682666c8.533333 4.394667 7.68 3.456 11.562667 10.624 1.28 2.346667 3.2 7.978667 5.034666 9.642666 6.229333 5.76 7.168 1.792 11.008-2.645333 1.024-1.152 10.538667-14.890667 7.168-14.208-11.093333 2.218667-21.76 1.92-30.933333-4.138667-5.290667-3.498667-10.325333-8.234667-16.64-10.581333-1.536-0.554667-12.757333-1.621333-11.434667 0.298667 1.962667 2.816 8.618667 4.693333 11.264 7.68-7.296 2.986667-13.397333-3.626667-19.114666-7.509334-6.101333-2.901333-7.509333-8.277333-12.672-12.970666-2.261333-2.048-6.570667-2.389333-8.789334-5.12-2.133333-2.602667-2.389333-6.741333-4.437333-9.216-1.450667-1.706667-5.12-0.682667-6.613333-3.328-1.92-3.413333 1.792-6.613333 0.981333-9.088-1.493333-4.48-10.026667-8.277333-13.312-11.52l1.28 1.28c-3.285333-3.413333-7.424-5.973333-9.984-9.984 1.152-5.632 4.864-19.114667 3.84-22.186667-3.413333-10.24-10.069333 5.546667-12.757333 9.6-9.258667 13.952-27.733333 4.608-40.405334 3.413333-16.128-1.450667-32-22.442667-22.016-39.509333 4.778667-8.149333 12.842667-11.349333 22.101334-9.429333 8.192 1.706667 10.666667 13.226667 18.389333 13.397333 14.250667 0.384 0.341333-13.952-0.896-19.2-1.152-4.906667 1.749333-5.333333 6.784-6.528 3.712-0.896 8.96 1.578667 12.16-0.554667 2.005333-1.322667 1.92-8.661333 4.693333-6.357333-5.461333-4.522667-4.224-15.274667 1.408-19.2 6.229333-4.266667 13.525333-0.298667 20.053334-1.962667 12.288-3.114667 6.4 0.938667 17.194666 7.466667 7.296 4.394667 8.533333-0.853333 13.482667-0.853333 3.413333 0 5.546667 4.906667 11.221333 3.456 4.608-1.152 6.4-4.693333 11.946667-5.546667 2.261333-0.341333 4.565333 0.853333 6.741333 0.597333 10.197333-1.109333 18.005333-7.68 26.026667-13.568 6.656-4.821333 11.008-3.84 18.773333-6.058666 5.632-1.621333 16.085333-9.813333 15.530667-17.024-0.085333-1.28-5.034667-7.722667-5.888-10.666667 1.450667-0.981333 11.52 1.28 14.464 1.493333-0.981333-1.152-7.808-5.973333-7.808-3.413333 0-1.28 4.821333-4.010667 6.016-4.821333 3.584 11.605333 9.429333 4.138667 16.512 1.28 5.973333-2.474667 13.397333-2.602667 19.797333-4.138667 5.418667-1.28 17.408-4.949333 21.461334-9.386667 4.821333-5.376 1.493333-14.08-2.133334-19.413333-4.693333-6.997333-11.733333-9.685333-14.677333-17.92-2.304-6.485333-0.554667-13.056-1.877333-20.266667-1.792-9.813333-3.242667-6.4-9.514667-12.330666-5.290667-5.034667-0.085333-4.138667-7.253333-7.338667-7.253333-3.242667-13.653333-2.261333-18.645334-10.24a13.226667 13.226667 0 0 1 0.512 1.536c-2.133333-2.986667-3.2-9.002667-4.181333-11.008-2.56-5.077333-5.973333-8.277333-9.984-12.501333-1.536-1.621333-15.616-20.906667-16.426667-19.328-1.024 2.005333-12.117333-2.005333-12.672 0.853333 0.426667-2.389333-0.085333-1.621333 2.645334-2.986667-2.56-15.786667-9.216-18.176-24.746667-18.346666 1.365333-7.594667-5.589333-6.101333-8.832-10.154667-1.877333-2.389333-2.816-9.130667-4.096-12.202667-0.853333-1.962667-6.869333-9.728-6.869333-11.264 0-1.408 2.005333-3.498667 3.925333-5.504-10.922667-2.133333-22.058667-3.669333-33.408-4.565333 2.133333 2.645333 2.645333 4.992-4.096 5.333333 1.792 4.906667 6.016 7.68 7.808 12.458667 0.853333 2.261333 0.170667 3.157333 0.853333 5.376 2.517333 7.68 1.450667 4.778667 0.042667 10.752-3.285333 13.994667 1.152 17.834667 4.949333 30.634667 3.925333 13.184 3.584 30.250667 6.058667 44.373333 1.194667 6.826667 3.157333 20.906667 0.810667 27.349333-2.688 7.253333-14.336 12.928-19.669334 17.792-7.552 6.869333-11.605333 14.336-17.194666 22.869334-2.858667 4.352-6.101333 8.576-8.32 13.312-4.778667 10.069333 0 4.053333 0.768 9.984 0.768 5.76-0.682667 10.88 1.621333 16.938666 2.517333 6.656 8.789333 10.794667 10.88 17.493334 1.834667 5.973333 0.426667 13.525333-5.717333 15.530666-3.413333 1.109333-7.168-1.450667-10.624-0.896-4.778667 0.768-10.24 4.352-13.952 7.253334-5.248 3.968-7.253333 10.496-12.8 14.293333-4.693333 3.157333-8.021333 1.28-13.056 2.730667-5.205333 1.536-8.448 7.978667-12.629334 10.026666-6.314667 2.986667-9.898667-1.322667-16.554666-0.426666-5.674667 0.725333-14.336 6.997333-19.626667 9.386666-10.794667 4.821333-17.365333 10.154667-21.674667 21.12-3.669333 9.386667-9.045333 13.781333-15.402666 21.632-6.4 7.893333-8.448 14.677333-18.346667 16.768-1.152 0.256 2.432-8.32 2.816-8.96 3.541333-6.613333 8.832-12.586667 13.098667-18.688 6.314667-8.96 3.626667-10.666667-2.773334-2.005333-7.296 9.984-15.786667 19.84-22.144 30.378667-2.389333 4.010667-1.92 6.570667-5.888 10.368-3.84 3.626667-8.832 5.418667-12.672 8.874666-13.824 12.501333-16.341333 29.141333-14.762666 46.933334 0.512 5.76 2.56 10.368 1.706666 15.957333a22.186667 22.186667 0 0 1-6.912 11.861333l-4.010666 6.314667c-3.157333 5.248-5.589333 10.368-10.581334 14.677333a253.610667 253.610667 0 0 1-17.28 13.056 297.685333 297.685333 0 0 0 119.466667 89.472 17.578667 17.578667 0 0 1 2.901333-6.997333c3.84-5.76 7.552-5.290667 15.104-6.869333-0.810667-8.789333-11.093333-8.874667-18.005333-7.893334-8.277333 1.109333-16.981333 3.84-24.149333-3.413333 3.968-2.346667 14.848-11.648 13.397333-1.962667 7.936 0.426667 15.573333 0.64 23.338667-0.298666 3.114667-0.384 13.525333-3.882667 16.341333-2.304 1.194667 0.682667 2.474667 6.528 3.712 8.32-2.218667 0-4.565333 1.109333-6.784 0.896 5.12 6.613333 10.24 1.450667 16.810667-1.578667-7.210667-4.394667-2.944-14.933333 4.096-6.4 5.802667 7.04-1.408 12.117333-8.746667 16.213333 7.381333 9.301333 11.946667 10.112 18.944-0.341333 1.109333 6.442667 6.314667 3.84 11.776 3.413333v1.578667c-2.389333-0.042667-4.949333 1.322667-7.338667 1.066667 5.546667 8.874667 2.005333 10.88 9.941334 13.781333 6.314667 2.304 24.32 0.170667 26.496 6.101333-12.586667-2.474667-27.776-3.029333-39.168-8.789333-4.864-2.474667-10.709333-10.24-15.616-5.205333-4.992 5.205333 3.584 13.568 7.978666 16.128h-1.024a295.850667 295.850667 0 0 0 101.973334 3.712c-4.522667-2.389333-1.152-4.010667-4.48-6.485334-6.357333-4.693333-17.621333-8.576-25.173334-11.52 9.6 0 32.853333-9.045333 37.333334 4.48-3.114667 0.426667-6.186667 0.938667-9.301334 1.408 5.802667 3.84 12.245333 6.954667 19.029334 9.258667a295.936 295.936 0 0 0 156.928-86.826667h-0.853334zM778.837333 469.973333c0.554667 1.152 1.834667 1.536 2.389334 2.56 1.109333 2.005333 0.853333 3.413333 2.218666 5.12 1.493333 1.92 3.498667 2.389333 5.12 3.84a5.973333 5.973333 0 0 1 1.322667 1.706667c4.949333-13.781333 8.874667-28.032 11.733333-42.666667l-0.213333-0.341333a24.704 24.704 0 0 0-6.4-1.28c-3.413333-0.170667-5.888 2.090667-8.362667 4.224a39.381333 39.381333 0 0 0-7.125333 7.808c-1.92 2.986667-0.725333 6.058667-0.597333 9.472 0.085333 2.858667-1.28 6.954667-0.085334 9.557333zM782.677333 316.288a91.434667 91.434667 0 0 0-16.64 18.218667c-4.352 6.869333-1.664 13.994667-1.322666 21.888 0.256 6.656-2.986667 16.128-0.170667 22.144 1.28 2.730667 4.266667 3.626667 5.504 5.845333 2.56 4.778667 2.005333 7.978667 5.205333 12.032 3.413333 4.394667 8.021333 5.461333 11.818667 8.917333 4.010667 3.584 3.882667 6.4 6.4 11.050667a41.813333 41.813333 0 0 0 10.325333 11.946667 297.984 297.984 0 0 0-6.613333-121.301334c-5.546667 1.408-10.069333 5.418667-14.506667 9.258667z"  horiz-adv-x="1024" />

    
    <glyph glyph-name="remove" unicode="&#58965;" d="M234.666667 341.333333a21.333333 21.333333 0 0 0-21.333334 21.333334v42.666666a21.333333 21.333333 0 0 0 21.333334 21.333334h554.666666a21.333333 21.333333 0 0 0 21.333334-21.333334v-42.666666a21.333333 21.333333 0 0 0-21.333334-21.333334z"  horiz-adv-x="1024" />

    
    <glyph glyph-name="fujian" unicode="&#58911;" d="M599.2 193.10000000000002c-3.6 3.6-9.5 3.6-13.1 0L450.5 57.5c-62.8-62.8-198.4-69.4-267.7 0-69.4 69.4-62.7 204.9 0 267.7l135.6 135.6c3.6 3.6 3.6 9.5 0 13.2l-31.6 31.6c-3.6 3.6-9.5 3.6-13.2 0L138 370c-47.4-47.3-74-111.5-74-178.5S90.6 60.299999999999955 138 13c47.3-47.4 111.5-74 178.5-74s131.2 26.6 178.5 74l135.6 135.6c3.6 3.6 3.6 9.5 0 13.2l-31.4 31.3zM886 760.9c98.6-98.6 98.6-258.5 0-357.1L750.4 268.20000000000005c-3.6-3.6-9.5-3.6-13.2 0l-31.6 31.6c-3.6 3.7-3.6 9.6 0 13.2l135.6 135.5c62.8 62.8 69.4 198.3 0 267.7-69.3 69.4-204.9 62.8-267.7 0L438 580.7c-3.6-3.6-9.5-3.6-13.2 0l-31.5 31.5c-3.6 3.6-3.6 9.5 0 13.2L529 761c47.3 47.4 111.5 74 178.5 74 67-0.1 131.2-26.8 178.5-74.1zM633.5 542.8l31.3-31.4c3.6-3.6 3.6-9.5 0-13.2l-264.2-264c-3.6-3.6-9.5-3.6-13.2 0L356 265.5c-3.6 3.6-3.6 9.5 0 13.2l264.3 264.1c3.7 3.6 9.6 3.6 13.2 0z"  horiz-adv-x="1024" />

    
    <glyph glyph-name="zhuzhuangtu1" unicode="&#59068;" d="M76.266667-45.85000031000004h240V462.11875031h-240V-45.85000031000004z m326.01499969 0h240V812.13375h-240V-45.85000031000004z m49.98625031 807.99875062h140.02875v-758.01250031H452.267917V762.14875031zM728.297917 594.15v-640.00000031h240v640.00000031h-240z m190.01499938-590.01375H778.28291669V544.16500031h140.02999969v-540.02875031z m0 0"  horiz-adv-x="1024" />

    
    <glyph glyph-name="dingwei" unicode="&#58950;" d="M512 349.35c-90.41 0-163.95 73.52-163.95 163.93S421.59 677.23 512 677.23s163.93-73.54 163.93-163.95S602.41 349.35 512 349.35z m0 268.75c-57.81 0-104.82-47.01-104.82-104.82 0-57.79 47.01-104.84 104.82-104.84 57.79 0 104.84 47.06 104.84 104.84 0 57.81-47.05 104.82-104.84 104.82z m0-542.52h-12.25l-11.64 9.91-190.24 190.25c-66.04 66.01-102.73 157.29-100.68 250.34 1.95 86.97 37.24 166.14 99.38 223.01 120.77 110.52 310.03 110.57 430.89 0 62.12-56.87 97.43-136.07 99.36-223.01 2.02-93.1-34.64-184.33-100.7-250.34L527.23 76.83 512 75.58z m0 697.45c-63.15 0-126.33-22.52-175.52-67.58-50.14-45.85-78.6-110.01-80.18-180.67-1.71-77.03 28.68-152.57 83.38-207.28L512 145.2l172.35 172.3c54.66 54.71 85.07 130.25 83.33 207.28-1.54 70.63-30.02 134.82-80.16 180.67-49.22 45.06-112.34 67.58-175.52 67.58z m299.49-712.94c0 47.3-50.04 85.31-140.88 107.01-15.64 3.56-31.8-5.97-35.65-21.89-3.75-15.88 6.01-31.85 21.89-35.65 71.5-17.03 95.56-41.09 95.56-49.46 0-18.86-84.25-65-240.38-65-156.16 0-240.38 46.14-240.38 65 0 8.37 24.06 32.43 95.53 49.46 15.88 3.8 25.69 19.78 21.89 35.65-3.75 15.88-19.49 25.55-35.6 21.89-90.89-21.7-140.95-59.71-140.95-107.01 0-81.46 150.67-124.09 299.51-124.09 148.81 0 299.46 42.63 299.46 124.09z"  horiz-adv-x="1024" />

    
    <glyph glyph-name="xiazai1" unicode="&#58944;" d="M768 768V832h-64v-64H320V832H256v-64H64v-832h896V768h-192z m128-768H128V704h128v-64h64V704h384v-64h64V704h128v-704zM256 448h512v-64H256z"  horiz-adv-x="1024" />

    
    <glyph glyph-name="xiazai" unicode="&#59007;" d="M546.304 304.128l160.768 160.704a38.4 38.4 0 0 0 54.272-54.272l-226.24-226.304-27.2-27.136-27.136 27.136-226.24 226.304a38.4 38.4 0 1 0 54.272 54.272l160.704-160.704V844.8a38.4 38.4 0 1 0 76.8 0v-540.672z m394.496-9.472a38.4 38.4 0 0 0 76.8 0v-233.728a171.904 171.904 0 0 0-171.904-171.904H178.304A171.904 171.904 0 0 0 6.4 60.928V304.96a38.4 38.4 0 1 0 76.8 0v-244.032c0-52.544 42.56-95.104 95.104-95.104h667.392c52.48 0 95.104 42.56 95.104 95.104V294.656z"  horiz-adv-x="1024" />

    
    <glyph glyph-name="shaixuan" unicode="&#59072;" d="M569.65730619-61.36051544999998a88.02642178 88.02642178 0 0 0-42.25268207 10.56317028l-116.1948768 64.25928796a88.02642178 88.02642178 0 0 0-45.77373971 77.46325148v368.83070657a17.60528471 17.60528471 0 0 1-7.04211354 14.08422793l-268.48058652 214.7844689-3.52105676 3.52105676c-24.64739825 25.52766266-30.80924737 62.49875913-16.72502031 95.06853531S114.56070579 840.02916273 149.77127432 840.02916273h723.57630667c35.21056854 0 66.9000803-20.24607707 80.98430826-52.81585325s7.92237795-68.66060914-15.84475588-95.06853532l-3.52105764-3.52105678-271.12137889-217.4252621a17.60528471 17.60528471 0 0 1-6.16184912-14.08422707v-430.44832188a88.02642178 88.02642178 0 0 0-88.02642179-88.02642179z m-433.97025893 802.80096635l266.72005771-213.02394092a87.14615737 87.14615737 0 0 0 33.45004061-68.66060914v-368.83070657a17.60528471 17.60528471 0 0 1 8.80264147-15.84475588l116.19487678-63.37902354a17.60528471 17.60528471 0 0 1 26.40792707 15.84475588v429.56893776a88.02642178 88.02642178 0 0 0 32.5697753 68.66060913l267.59944186 215.66473328a17.60528471 17.60528471 0 0 1-14.08422707 28.16845502h-723.57718692a17.60528471 17.60528471 0 0 1-14.08422708-28.16845502z m776.39215904-25.52766265zM927.04369777 381.41150555h-198.93971298a35.21056854 35.21056854 0 0 0 0 70.42113709h198.93971298a35.21056854 35.21056854 0 0 0 0-70.42113709z m0-132.03963268h-198.93971298a35.21056854 35.21056854 0 0 0 0 70.42113708h198.93971298a35.21056854 35.21056854 0 0 0 0-70.42113708z m0-131.15848799h-198.93971298a35.21056854 35.21056854 0 0 0 0 70.42113706h198.93971298a35.21056854 35.21056854 0 0 0 0-70.42113706z"  horiz-adv-x="1024" />

    
    <glyph glyph-name="hetongmianji" unicode="&#58912;" d="M368.46460502 578.676071l220.806125-165.868655c16.377552-12.151295 36.448725-19.017511 57.052534-19.017512 14.791254 0 29.582509 3.697491 42.26257 10.040101l165.868655 82.932393v-383.506055H157.16465502V420.202398l211.29995 158.473673m0 71.315022c-6.866217 0-13.208826-2.111194-19.017512-6.337451L106.44957202 461.407436c-7.918589-5.808685-12.674902-15.32002-12.674902-25.356252v-364.493703c0-17.429924 14.262489-31.692413 31.692413-31.692413H886.14690202c17.436373 0 31.698861 14.262489 31.698861 31.692413V538.001088c0 18.488746-15.32002 31.697572-31.698861 31.697572-4.749864 0-9.506176-1.057531-14.261199-3.168725l-211.29995-105.652555c-4.226257-2.109904-9.506176-3.168725-14.262489-3.168725-6.866217 0-13.203668 2.111194-19.017511 6.337451L387.48211602 643.653642c-5.813844 4.226257-12.151295 6.337451-19.017511 6.337451z m0 0"  horiz-adv-x="1024" />

    
    <glyph glyph-name="shouye" unicode="&#58943;" d="M989.54666667-51.09333332999995V405.33333333c0 21.76-10.77333333 51.41333333-24.85333334 69.76-2.88 3.84-6.4 7.04-10.02666666 10.24L540.48 848c-14.72 16-40.96 15.57333333-54.82666667 0.42666667L69.12 485.01333333c-3.62666667-3.09333333-7.14666667-6.4-10.02666667-10.13333333-13.86666667-18.02666667-24.64-47.68-24.64-69.44v-456.53333333c0-22.4 17.92-40.74666667 39.89333334-40.74666667h875.30666666c21.97333333 0 39.89333333 18.34666667 39.89333334 40.74666667z m-43.62666667 2.66666666H533.76V250.55999999999995c0 11.94666667-9.81333333 21.76-21.76 21.76s-21.76-9.70666667-21.76-21.76v-298.98666667H77.97333333V405.33333333c0 2.98666667 0.53333333 6.61333333 1.38666667 10.45333334 3.94666667 17.38666667 14.29333333 32.74666667 27.84 44.58666666l405.65333333 353.92 3.30666667-2.88 400.32-350.50666666c13.65333333-11.94666667 24-27.41333333 28.05333333-45.01333334 0.85333333-3.84 1.38666667-7.46666667 1.38666667-10.45333333v-453.86666667z"  horiz-adv-x="1067" />

    
    <glyph glyph-name="sousuo" unicode="&#59219;" d="M833.536 98.986667l158.344533-158.344534a34.133333 34.133333 0 1 0-48.298666-48.264533l-159.163734 159.163733A475.9552 475.9552 0 0 0 477.866667-59.733333C213.947733-59.733333 0 154.2144 0 418.133333S213.947733 896 477.866667 896s477.866667-213.947733 477.866666-477.866667c0-122.6752-46.216533-234.530133-122.197333-319.146666zM477.866667 8.533333c226.2016 0 409.6 183.3984 409.6 409.6S704.068267 827.733333 477.866667 827.733333 68.266667 644.334933 68.266667 418.133333s183.3984-409.6 409.6-409.6z"  horiz-adv-x="1024" />

    
    <glyph glyph-name="icon-mini-add" unicode="&#58886;" d="M990.06506667 247.50400000000002H785.2256V452.04373333h-68.27946667v-204.53973333H512.1056v-68.18026667h204.83946667v-204.55786666l68.27946666 0.01813333V179.32479999999998h204.83946667v68.1792z m0 0M853.50613333 793.61066667H34.14613333V861.92426667l819.36 0.0832zM785.2256 793.61066667h68.27946667v-273.02826667h-68.27946667zM102.42666667 42.96426667000003l-68.28053334-0.17493334V793.61066667h68.2432zM34.35946667 42.96426667000003h341.18613333v-68.18026667H34.35946667zM170.752 588.91626667h409.68v68.18026666H170.752v-68.18026666z m0-136.28586667l341.39946667-0.0736v68.18026667H170.752v-68.10666667z m0-136.87146667h204.83946667v68.1504l-204.83946667 0.02986667v-68.18026667z m0 0"  horiz-adv-x="1024" />

    
    <glyph glyph-name="fenxi" unicode="&#58887;" d="M485.433 668.444c-131.982 0-238.933-104.22-238.933-232.675 0-9.444 0.568-18.717 1.706-27.762-76.174-11.662-134.428-75.833-134.428-153.315 0-85.675 71.338-155.136 159.289-155.136h424.789v1.82a193.898 193.898 0 0 1 26.51-1.82c102.628 0 185.856 81.066 185.856 181.02s-83.228 181.02-185.856 181.02c-14.62 116.338-115.94 206.848-238.933 206.848zM967.11 280.576c0-121.628-92.9-221.468-212.366-236.089l-481.678-1.82c-119.069 0-216.178 94.606-216.178 212.025 0 87.722 54.5 163.783 133.12 195.868 7.907 153.372 137.443 274.773 295.424 274.773 134.485 0 249.742-88.348 284.843-211.114 111.9-21.05 196.835-117.362 196.835-233.643z m-682.667 46.535v-170.667h56.89V327.111h-56.89z m170.667 170.667v-341.334H512V497.778h-56.889zM625.778 384v-227.556h56.889V384h-56.89z"  horiz-adv-x="1024" />

    
    <glyph glyph-name="waterbalance" unicode="&#59321;" d="M526.826667 807.04c-9.28 4.8-20.373333 4.8-29.653334 0C482.133333 799.146667 128 611.52 128 336.53333299999997c0-37.013333 5.44-72.853333 15.466667-106.666666 0.32-1.173333 0.746667-2.453333 1.173333-3.626667C192.533333 70.82666700000004 339.093333-42.66666699999996 512-42.66666699999996c211.733333 0 384 170.133333 384 379.2 0 274.986667-354.133333 462.613333-369.173333 470.506667zM512 21.33333300000004c-138.346667 0-256.533333 86.933333-301.12 208.32L288 306.773333l126.72-126.72c6.186667-6.293333 14.4-9.386667 22.613333-9.386666s16.426667 3.093333 22.613334 9.386666L661.333333 381.44000000000005V352c0-17.706667 14.293333-32 32-32s32 14.293333 32 32V458.666667c0 2.026667-0.213333 4.053333-0.64 6.08 0 0.32-0.106667 0.746667-0.213333 1.173333a31.648 31.648 0 0 1-4.48 10.346667c-0.533333 0.96-1.173333 1.813333-1.92 2.56a23.36 23.36 0 0 1-4.586667 4.586666c-0.746667 0.746667-1.6 1.386667-2.56 1.92a31.648 31.648 0 0 1-10.346666 4.48c-0.426667 0.106667-0.853333 0.213333-1.173334 0.213334A29.44 29.44 0 0 1 693.333333 490.666667H586.666667c-17.706667 0-32-14.293333-32-32s14.293333-32 32-32h29.44L437.333333 247.89333299999998 310.613333 374.613333a32 32 0 0 1-45.226666 0l-71.573334-71.573333c-1.173333 10.986667-1.813333 22.186667-1.813333 33.493333 0 207.146667 255.146667 368 320 405.44 64.853333-37.44 320-198.293333 320-405.44C832 162.66666699999996 688.426667 21.33333300000004 512 21.33333300000004z"  horiz-adv-x="1024" />

    
    <glyph glyph-name="bitian" unicode="&#58934;" d="M534.869333 405.504a1403.306667 1403.306667 0 0 1 50.858667 25.813333c16.042667 8.618667 29.013333 15.061333 38.570667 19.029334 9.557333 3.925333 17.066667 6.058667 22.869333 6.058666 9.557333 0 17.749333-3.2 24.917333-10.026666 6.826667-6.826667 10.581333-15.061333 10.581334-25.088 0-5.76-1.706667-11.818667-5.12-17.92-3.413333-6.101333-7.168-10.069333-10.922667-11.861334-35.157333-14.677333-74.410667-25.429333-116.736-31.872 7.850667-7.168 17.066667-17.237333 28.330667-29.781333 11.264-12.544 17.066667-18.986667 17.749333-20.053333 4.096-6.101333 9.898667-13.653333 17.408-22.613334 7.509333-8.96 12.629333-15.786667 15.36-20.778666 2.730667-5.034667 4.437333-11.093333 4.437333-18.304a33.706667 33.706667 0 0 0-9.898666-24.021334 33.834667 33.834667 0 0 0-25.6-10.410666c-10.24 0-22.186667 8.618667-35.157334 25.472-12.970667 16.512-30.037333 46.933333-50.517333 91.050666-20.821333-39.424-34.816-65.962667-41.642667-78.506666-7.168-12.544-13.994667-22.186667-20.48-28.672a30.976 30.976 0 0 0-22.528-9.685334 32.256 32.256 0 0 0-25.258666 11.093334 35.413333 35.413333 0 0 0-9.898667 23.68c0 7.893333 1.365333 13.653333 4.096 17.578666 25.258667 35.84 51.541333 67.413333 78.848 93.568a756.650667 756.650667 0 0 0-61.44 12.544 383.061333 383.061333 0 0 0-57.685333 20.48c-3.413333 1.749333-6.485333 5.717333-9.557334 11.818667a30.208 30.208 0 0 0-5.12 16.853333 32.426667 32.426667 0 0 0 10.581334 25.088 33.152 33.152 0 0 0 24.234666 10.026667c6.485333 0 14.677333-2.133333 24.576-6.101333 9.898667-4.266667 22.186667-10.026667 37.546667-18.261334 15.36-7.893333 32.426667-16.853333 51.882667-26.538666-3.413333 18.261333-6.485333 39.082667-8.874667 62.378666-2.389333 23.296-3.413333 39.424-3.413333 48.042667 0 10.752 3.072 19.712 9.557333 27.264A30.677333 30.677333 0 0 0 512.341333 554.666667c9.898667 0 18.090667-3.925333 24.576-11.477334 6.485333-7.893333 9.557333-17.92 9.557334-30.464 0-3.584-0.682667-10.410667-1.365334-20.48-0.682667-10.368-2.389333-22.570667-4.096-36.906666-2.048-14.677333-4.096-31.146667-6.144-49.834667z"  horiz-adv-x="1024" />

    
    <glyph glyph-name="Arrowdown" unicode="&#58974;" d="M632.66815999 279.86944000000005l-86.53823999-86.528L546.12992 691.2l-68.25984 0 0-497.85856-86.56895999 86.528-48.27136001-48.26112 144.8448-144.80384a34.0992 34.0992 0 0 1 48.26112 0l144.8448 144.80384-48.31232001 48.26112z"  horiz-adv-x="1024" />

    
    <glyph glyph-name="shoucang-copy" unicode="&#59357;" d="M768.13132033-96c-14.03393438 0-29.80094812 4.02396188-44.43409218 11.34114281l-208.78567125 104.42571938-210.08395875-104.25886594c-13.30197187-7.08334313-28.53554343-10.80891844-44.06872032-10.80891844a93.78974343 93.78974343 0 0 0-56.07118688 18.35871938c-29.39660345 22.04653969-44.46332156 60.26322-37.51273124 95.04905906l42.97016906 222.88659L45.4561894 394.5068775a101.41018313 101.41018313 0 0 0-25.608915 98.07433781l0.33248812 1.13265282c11.97445406 35.88073689 41.67066281 61.02319313 77.68902375 65.84732062l228.80926781 41.6036775 102.69507469 208.59080625c16.49775844 33.02109281 50.05229344 54.23945531 85.53842813 54.23945625 37.01338969 0 71.43751031-22.01730937 85.872135-54.83866594l102.36136875-207.92461125 228.84215156-40.00943906c36.31309313-5.25770156 66.16641187-31.33307437 76.25676469-66.61460156a96.43381781 96.43381781 0 0 0-23.84416875-98.4031725l-0.56632594-0.56632594-164.22126375-154.64486625 41.50381031-223.28606344c6.68386969-35.71875469-7.51691719-71.77121625-37.080375-94.25011219a87.96693375 87.96693375 0 0 0-55.90433344-19.45727062z m-487.88107125 60.02938219"  horiz-adv-x="1024" />

    
    <glyph glyph-name="shangxiajiantou-copy" unicode="&#59358;" d="M893.416 451.614667L680.426667 697.374667l-207.530667-245.76h420.52z m0 0M472.896 413.385333h420.52c16.386667 0 27.308 10.921333 32.772 21.849334 5.457333 16.38 5.457333 32.765333-5.464 43.686666L707.734667 730.1453329999999c-10.922667 16.38-38.229333 16.38-49.150667 0L450.444 480S434.666667 462.536 434.666667 451.614667c0-21.844 16.385333-38.229333 38.229333-38.229334z m338.604 76.458667H549.354667L680.426667 642.76l131.073333-152.916z m0 0"  horiz-adv-x="1024" />

    
    <glyph glyph-name="shangxiajiantou-copy-copy" unicode="&#59359;" d="M835.638667 572.86L628.108 321.63599999999997 415.118667 572.86h420.52z m0 0M415.118667 611.089333h420.52c16.386667 0 27.308-10.921333 32.772-21.844 5.457333-16.385333 5.457333-32.770667-5.464-43.692L649.957333 294.33466699999997c-10.922667-16.385333-38.229333-16.385333-49.150666 0L388.889333 539.777333s-12.166667 11.5-12 33.082667c0.5 18.250667 21.844 38.229333 38.229334 38.229333z m344.062666-81.921333H497.04l131.068-152.917333 131.073333 152.917333z m0 0"  horiz-adv-x="1024" />

    
    <glyph glyph-name="shouye-copy" unicode="&#59360;" d="M954.82682323 469.01601533c-2.7 3.59765596-6.00117187 6.60117217-9.39726562 9.59882871L557.12643232 818.61445342C543.32994823 833.61562529 518.72994765 833.21718721 505.7291664 819.0175778299999L115.22877636 478.3171875c-3.40078096-2.90156221-6.70078125-6.00117187-9.40195371-9.50273438-13.00078125-16.90078096-23.09882783-44.70117188-23.09882784-65.09882812v-427.99921875c0-21.00234375 16.80000029-38.20078125 37.39921875-38.20078125h820.60078096c20.59921846 0 37.39921875 17.1984375 37.39921875 38.20078125v427.89843721c0 20.40234346-10.09804658 48.20273437-23.30039004 65.40117187zM568.69049452-62.484375h-75.5859375V244.83984404c0 20.78554658 17.00624971 37.79296875 37.79296875 37.79296875 20.78554658 0 37.79296875-17.00624971 37.79296875-37.79296875V-62.484375z"  horiz-adv-x="1067" />

    
    <glyph glyph-name="jiance-copy" unicode="&#59361;" d="M830.73528619 11.988280959999997H197.59817711c-14.43398467 0-26.82539033-11.11406221-27.3375-25.55273408-0.50859404-15.07382842 11.62617187-27.59414063 26.57226533-27.59414063h634.66640683c14.95078154 0 27.08671904 12.52031221 26.57343692 27.59414063-0.63632812 14.43867187-12.90468779 25.55273408-27.3375 25.55273408zM973.36770807 761.7597659200001c0 12.26367158-4.72382842 23.76210938-13.41210938 32.45039033-8.68828096 8.68359375-20.18671875 13.41210938-32.45039033 13.41210937H100.57278677c-13.16015596 0-25.42382842-5.49257783-34.2363287-15.45820312-7.53867158-8.43164033-11.49843779-19.67460908-11.49843692-31.16953125v-614.61093779c0-12.26367158 4.72851563-23.76328096 13.41210937-32.45156192 8.68828096-8.68359375 20.18789033-13.41210938 32.45156192-13.41210937h836.76914121c19.93124971 0 36.02578096 16.09453125 36.02578096 36.02578095-0.12890654 137.96953154-0.12890654 625.21406279-0.12890654 625.2140628zM802.81888052 347.8453125H690.65755211c-8.17968779 0-15.97031279 3.32343721-21.72070284 9.32929717L524.58177115 493.73906279c-1.15429658 0.89296875-2.559375 0.89296875-3.58007871-0.12890654L393.76184927 360.87773437c0-0.12890654-0.12890654-0.12890654-0.12890654-0.25664062-6.00585908-8.30390625-18.140625-12.90468779-27.97851533-12.90468779l-128.38828183 0.25664062c-18.26953154 0.12773408-32.95898438 14.81835938-33.08671846 33.08671934 0 18.39843721 14.81718779 33.47226562 33.34335908 33.47226562H363.99739557c0.50859404 0 1.14960938 0.25664063 1.65703183 0.76874942l155.21953096 159.43007812c0.63984375 0.64101533 1.40507842 1.02539092 2.30156279 0.7687503 0.63632812-0.25546904 1.40625-0.64101533 2.04257812-1.1484378l177.06210909-158.92617129c0.25664063-0.38085908 0.89296875-0.63632812 1.53398408-0.63632812l99.00468808-0.76992188c18.26953154-0.12304688 32.96367158-14.94492188 33.34335909-32.70234375 0-18.39726563-14.81718779-33.47109404-33.34335909-33.47109404z"  horiz-adv-x="1024" />

    
    <glyph glyph-name="waterbalance-copy" unicode="&#59362;" d="M526.58933336 834.621333a34.485333 34.485333 0 0 1-31.629333 0C478.91866636 826.2 101.17333336 626.0640000000001 101.17333336 332.746667c0-28.586667 3.057333-56.513333 8.797333-83.444l137.749334 124.064c13.322667 13.306667 34.917333 13.306667 48.24 0l135.166666-135.172 190.692 190.693333h-31.4c-18.885333 0-34.136 15.249333-34.136 34.134667s15.250667 34.130667 34.136 34.130666h113.776c2.181333 0 4.353333-0.229333 6.484-0.682666 0.344 0 0.797333-0.109333 1.254667-0.224a33.858667 33.858667 0 0 0 11.037333-4.781334 12.293333 12.293333 0 0 0 2.729334-2.046666 24.986667 24.986667 0 0 0 4.889333-4.890667 12.361333 12.361333 0 0 0 2.053333-2.734667 33.686667 33.686667 0 0 0 4.776-11.036c0.114667-0.453333 0.228-0.906667 0.228-1.250666 0.453333-2.161333 0.682667-4.322667 0.682667-6.484v-113.776c0-18.890667-15.244-34.134667-34.134667-34.134667-18.885333 0-34.130667 15.244-34.130666 34.134667v31.401333L455.25200036 165.836c-6.6-6.714667-15.36-10.016-24.125334-10.016-8.76 0-17.521333 3.301333-24.12 10.016L271.84000036 301.002667l-138.498667-125.174667c62.130667-145.274667 207.905333-247.56 377.430667-247.56 225.849333 0 409.598667 181.473333 409.598666 404.478667 0 293.317333-377.738667 493.453333-393.781333 501.874666z"  horiz-adv-x="1024" />

    
    <glyph glyph-name="baojing-copy" unicode="&#59363;" d="M870.4748701 1.72031278999998c-5.97421846 6.01523437-13.94414033 9.32460908-22.43554716 9.32460908h-55.95234346a3.7828125 3.7828125 0 0 0-3.78164092 3.78046846V333.85078095999995c0 152.55468721-124.99687529 276.66796904-278.64492187 276.66796904s-278.65429717-124.11328096-278.65429717-276.66796904v-319.02539063a3.77812529 3.77812529 0 0 0-3.77695283-3.78046845h-56.35546875c-17.43984404 0-31.6265625-14.12695283-31.6265625-31.48945313 0-17.36367187 14.18671846-31.49414033 31.6265625-31.49414033h677.03789091c17.43632842 0 31.6265625 14.13046846 31.6265625 31.52109375 0.05507842 8.33671846-3.16289092 16.19648438-9.06328125 22.13789062zM603.6307289 227.63085966999995l-107.73984375-106.80937559c-5.00742158-5.00390596-11.78320342-7.75078154-19.1027338-7.75078066-7.31015596 0-14.14921904 2.76562529-19.27148466 7.78242129-5.09531221 5.09531221-7.91953154 11.81484404-7.91953154 18.88242187 0 7.23281221 2.83359375 14.05429717 7.98867245 19.20351621l65.47382755 64.94765625a9.365625 9.365625 0 0 1 2.07304716 10.25390567 9.38906279 9.38906279 0 0 1-8.69765625 5.82773467l-76.88554716-0.00468721c-0.7875-0.0140625-1.49179658-0.02343779-2.18789034-0.02343779-14.69414092 0-25.003125 3.40546904-31.52226533 10.41445283-9.88710908 10.67460908-9.89179717 26.71523438-0.00468808 36.51093808l103.43671875 102.76757754c4.88906279 4.84335967 11.41171875 7.51289062 18.365625 7.51289063 6.95390625 0 13.48125029-2.67421904 18.37500029-7.52109346a25.63710908 25.63710908 0 0 0 7.55742216-18.24726533c0-6.99023408-2.66835938-13.4578125-7.52109433-18.20976592l-46.04648379-45.65273467a9.37265625 9.37265625 0 0 1-2.07890683-10.25859375 9.37734346 9.37734346 0 0 1 8.69765625-5.821875h79.42734404c19.70624971-0.30703096 30.80273467-13.82460908 32.73867158-26.25351504 1.38750029-9.06328125-0.11367158-22.95234404-15.15585937-37.55039062zM506.43776015 656.54648408c0.82382783 0 1.65703096-0.00468721 2.43984375-0.01874971 9.13242217 0 18.14179658-0.63164092 27.33281279-1.3359375l4.55039033-0.34804687V787.99804688c0 17.36250029-14.18554688 31.48945312-31.61718721 31.48945312-17.44101563 0-31.62773408-14.12695283-31.62773408-31.48945313v-133.02656279l4.51874971 0.34804688c7.12265625 0.60937471 15.5953125 1.22695313 24.40312471 1.22695312zM183.5498701 335.10468749999995a3.73828096 3.73828096 0 0 0-0.13710937 1.00312471c0 10.9265625 0.63164092 22.21992158 1.88554658 33.60000058l0.55429717 4.6546875H60.42916698c-17.43632842 0-31.62187529-14.12695283-31.62187529-31.48945312 0-17.3671875 14.18554688-31.49882842 31.62187529-31.49882842h123.12070312v23.73046875zM757.44752635 542.36601533l2.92148438-3.41015625 90.97968692 90.33984404c6.04335937 6.046875 9.37031221 14.04492188 9.37031308 22.52226534 0 8.3953125-3.32695283 16.34648467-9.35625058 22.38046875-6.01992158 5.96367158-14.02617217 9.24609375-22.53046817 9.24609375-8.51015654 0-16.51640625-3.28242217-22.53164063-9.24257813l-91.20468779-90.56835879 3.46054659-2.90625029c14.50664033-12.19101592 27.59414063-25.09921846 38.8910162-38.36132842zM261.41510419 543.94101533l2.925 3.26835967c13.20703154 14.68125 25.9734375 26.91679658 39.04804687 37.43203096l3.68906221 2.92031279-93.10898408 92.34023467c-5.95546875 5.89570313-13.88437471 9.14531221-22.33007842 9.1453122-8.44570283 0-16.37812529-3.24960908-22.35234375-9.1593747-5.94140625-5.82304658-9.20976592-13.71914033-9.20976504-22.23398496 0-8.3953125 3.28124971-16.29609346 9.22851562-22.246875l92.11054659-91.46601563zM957.04713573 374.36250028999996H831.57330702l0.48164063-4.57265654c1.15781221-10.940625 1.74375-22.275 1.74375-33.68203154v-24.59648409h123.24843808c17.39062529 0 31.640625 14.14101533 31.75898379 31.48945313 0 17.29453096-14.2453125 31.36171904-31.75898379 31.36171904z"  horiz-adv-x="1024" />

    
    <glyph glyph-name="kpi-copy" unicode="&#59364;" d="M859.43570406 818.933333H133.67437007c-40 0-72.530667-32.530667-72.53066601-72.64v-725.76133299c0-40 32.426667-72.530667 72.53066601-72.53066701h725.76133399c40 0 72.536 32.426667 72.536 72.53066701V746.4026670000001c0 40-32.426667 72.530667-72.536 72.530666zM224.34103707 360.05333299999995l133.333333 128.109334L381.57037007 512.0533330000001l95.786667-95.786666 146.136 149.546666h-66.24533301c-18.666667 0-33.91600001 15.146667-33.916 33.813334s15.145333 33.921333 33.812 33.92133301h135.46933301c18.666667 0 33.91600001-15.145333 33.91599999-33.92133301v-135.464c0-18.666667-15.145333-33.922667-33.91599999-33.922667-18.666667 0-33.922667 15.146667-33.922667 33.922667l0.21333399 41.276L525.24770406 368.48l-47.89066699-47.896-95.786667 95.786667-109.333333-104.208c-13.229333-13.229333-34.666667-13.229333-47.896 0-13.224 13.224-13.224 34.666667 0 47.890666zM724.71703707 117.17333299999996H268.50370406c-21.010667 0-37.974667 15.145333-37.974667 33.921334 0 18.770667 16.96400001 33.917333 37.974667 33.91733301h456.21333301c21.014667 0 37.973333-15.146667 37.973333-33.91733301 0-18.666667-17.06799999-33.921333-37.973333-33.921334z"  horiz-adv-x="1024" />

    
    <glyph glyph-name="mail-copy" unicode="&#59365;" d="M868.817917 852.2899996900001H152.01541638c-35.34625031 0-63.99874969-28.65250031-63.99874969-63.99874969v-810.24c0-35.34625031 28.65250031-64.00375031 63.99874969-64.00375031h716.80250062c35.34625031 0 63.99874969 28.6575 63.99874969 64.00375031V788.29125c0 35.34625031-28.65250031 63.99874969-63.99874969 63.99874969z m-134.4-693.12H286.41541638c-17.67124969 0-31.99750031 14.32624969-31.99749938 32.00125031 0 17.67124969 14.32624969 31.99750031 31.99749938 31.99750031h448.00250062c17.67124969 0 31.99750031-14.32624969 31.99749938-31.99750031 0-17.67499969-14.32624969-32.00125031-31.99749938-32.00125031z m0 192.00125062H286.41541638c-17.67124969 0-31.99750031 14.32624969-31.99749938 31.99749938 0 17.67625031 14.32624969 32.0025 31.99749938 32.0025h448.00250062c17.67124969 0 31.99750031-14.32624969 31.99749938-32.0025 0-17.67124969-14.32624969-31.99750031-31.99749938-31.99749938z m0 191.99749969H286.41541638c-17.67124969 0-31.99750031 14.32624969-31.99749938 32.0025 0 17.67 14.32624969 31.99624969 31.99749938 31.99624969h448.00250062c17.67124969 0 31.99750031-14.32624969 31.99749938-31.99624969 0-17.67625031-14.32624969-32.0025-31.99749938-32.0025z"  horiz-adv-x="1024" />

    
    <glyph glyph-name="activities-copy" unicode="&#59366;" d="M518.73531968 834c-160.77098672 0-309.32648789-85.77043594-389.71198125-224.99834854-80.38549336-139.23231592-80.38549336-310.77098701 0-449.99889873 80.38549336-139.23231592 228.94099453-225.00275273 389.71198125-225.00275273 248.52650801 0 449.99889873 201.47239072 449.99889873 450 0 248.52650801-201.47239072 450-449.99889873 450z m30.01849629-652.48309951c-0.73986504-16.02491133-13.94734307-28.63014785-29.98876992-28.63014873-16.03702266 0-29.24450068 12.60523652-29.98876992 28.63014873V451.45326328c0 16.55338711 13.40565645 29.98436572 29.95904355 30.0184963a30.02400175 30.02400175 0 0 0 21.22819101-8.79030528 30.02400175 30.02400175 0 0 0 8.79030528-21.22819102v-269.93636279z m-30.01849629 359.99735713c-20.70852364 0-37.49421972 16.79010029-37.49421972 37.49862392 0 20.70412031 16.78569609 37.49421972 37.49421972 37.49421973 20.70742324 0 37.49311846-16.79010029 37.49311846-37.49421973 0-20.70852364-16.78569609-37.49862393-37.49311846-37.49862393z"  horiz-adv-x="1024" />

    
    <glyph glyph-name="zichan-copy" unicode="&#59367;" d="M516.54266636 832.954667l444.776-225.645334c6.302667-3.198667 8.818667-10.901333 5.62-17.209333a12.829333 12.829333 0 0 0-5.62-5.624L516.54266636 358.829333a12.817333 12.817333 0 0 0-11.582666 0L60.18400036 584.476c-6.302667 3.202667-8.822667 10.9-5.625334 17.208a12.850667 12.850667 0 0 0 5.625334 5.625333L504.96000036 832.954667a12.784 12.784 0 0 0 11.582666 0zM968.88133336 453.949333v-67.478666a8.518667 8.518667 0 0 0-4.562667-7.552L529.14666636 150.22000000000003a38.417333 38.417333 0 0 0-35.728 0L58.24666636 378.918667a8.529333 8.529333 0 0 0-4.562666 7.552v67.478666a8.533333 8.533333 0 0 0 12.505333 7.557334l445.093333-233.912L956.38133336 461.506667a8.530667 8.530667 0 0 0 12.5-7.557334zM968.88133336 241.68399999999997v-67.48a8.516 8.516 0 0 0-4.562667-7.552L529.14666636-62.04533300000003a38.417333 38.417333 0 0 0-35.728 0L58.24666636 166.65200000000004a8.525333 8.525333 0 0 0-4.562666 7.552v67.48a8.538667 8.538667 0 0 0 4.12 7.306667 8.544 8.544 0 0 0 8.385333 0.250666l445.093333-233.917333 445.098667 233.917333a8.533333 8.533333 0 0 0 12.5-7.557333z"  horiz-adv-x="1024" />

    
    <glyph glyph-name="fenxi-copy" unicode="&#59368;" d="M786.28133336 522.812C748.83866636 653.76 625.89600036 748 482.44800036 748c-168.516 0-306.688-129.494667-315.12-293.094667C83.46933336 420.682667 25.33333336 339.552 25.33333336 245.98400000000004c0-125.249333 103.584-226.161333 230.588-226.161333l513.792 1.942666c127.432 15.593333 226.521333 122.088 226.521333 251.828 0 124.032-90.594667 226.765333-209.953333 249.218667zM328.74000036 141.18666700000006h-60.682667V323.229333h60.682667V141.18666700000006z m182.046666 0h-60.682666V505.276h60.682666V141.18666700000006z m182.046667 0h-60.682667V383.910667h60.682667V141.18666700000006z"  horiz-adv-x="1024" />

    
    <glyph glyph-name="ziyuan-copy" unicode="&#59369;" d="M971.85106439 287.88960563l-85.34486343 64.70942437v3.59295a274.30402594 274.30402594 0 0 1 1.73085 27.96079031 274.31105719 274.31105719 0 0 1-1.73085 27.96430594v3.59295l85.34486343 64.70942531c20.17372219 15.46749656 25.45181906 43.65211406 12.24954469 65.37270282L891.69758002 701.44094531a53.25089156 53.25089156 0 0 1-45.53413594 26.62720313 46.81615969 46.81615969 0 0 1-17.57334469-3.0620925l-101.32563843-39.94432125-2.79607969 2.00037937a326.25297094 326.25297094 0 0 1-50.19348563 28.09321219l-3.20037375 1.46483625-15.30695062 103.32133125c-3.85427625 25.55142844-25.9557225 44.35640719-51.79660219 44.06812687H418.50046064c-25.41549094 0.12421781-47.12201812-18.30576281-51.12746625-43.40484937l-14.38234593-104.38304438-3.32810719-1.46483625a371.93827781 371.93827781 0 0 1-50.32707938-28.23032062l-2.79607875-1.86327094-101.06079656 39.94432125a51.3700425 51.3700425 0 0 1-18.50732437 3.06209344 49.5266925 49.5266925 0 0 1-44.73609282-25.43307l-93.20107218-156.44448938c-12.94915031-21.76629188-7.70386594-49.76809781 12.25071656-65.37270281l82.41519187-62.58013969 2.66365782-4.79294343v-3.59412188c-0.79687125-9.18627937-1.46483625-17.71045406-1.46483625-25.56549-0.25195219-9.21440437 0.28359187-18.43349719 1.59725718-27.56118281v-3.85896469l-85.60970531-64.84184625c-20.17372219-15.47335594-25.45181906-43.65211406-12.24954562-65.37387469l91.86748593-155.64761906a53.25440719 53.25440719 0 0 1 45.5388225-26.628375 46.90990969 46.90990969 0 0 1 17.57334563 3.05857781l101.32446656 39.94432125 2.79725063-1.99569281a325.83578531 325.83578531 0 0 1 50.06106468-27.69477656l3.19451438-1.46483625 15.84366656-103.98578063c4.01950969-25.36861687 25.97798812-43.99078406 51.66301031-43.80680062h185.47050844c25.89595781-0.55898156 48.18490312 18.1956075 52.061445 43.80680062l15.31281 104.25062344 3.19451438 1.46483625a373.1453025 373.1453025 0 0 1 50.32707843 28.23031969l2.79607969 1.86327187 101.06079563-39.94432125a51.3700425 51.3700425 0 0 1 18.50732531-3.06209343 49.53138 49.53138 0 0 1 44.73609187 25.42838156l93.20107219 157.11245531c12.56946469 21.83543156 6.8519175 49.61223938-13.31711719 64.70942531z m-459.83898656-49.39192782c-80.2554375-0.16992094-145.49454656 64.65434719-145.837905 144.90861281-0.33867 80.24957812 64.34731781 145.62696844 144.59689594 146.14493344a145.67853 145.67853 0 0 0 103.46781469-42.33376125 145.6832175 145.6832175 0 0 0 42.99352406-103.19828531c-0.0046875-80.24957812-64.97075156-145.35275062-145.22032969-145.52149969z"  horiz-adv-x="1024" />

    


  </font>
</defs>
</svg>
